<svg xmlns="http://www.w3.org/2000/svg" viewBox="0 0 78 78.17">
    <defs><style>.cls-1{fill:#989a9b;}.cls-2{fill:none;}</style></defs>
    <title>Recurso 14</title>
    <g id="Capa_2" data-name="Capa 2">
        <g id="Capa_1-2" data-name="Capa 1">
            <path class="cls-1" d="M20.9,13.71a1.76,1.76,0,0,0-1.5.8l-14,19h0a.76.76,0,0,0-.2.5v.1c0,.2-.1.3-.1.5v28A2,2,0,0,0,7,64.51H42a.9.9,0,0,0,.5-.1c.2,0,.3.1.5.1H71a2,2,0,0,0,1.9-1.9v-28a1.5,1.5,0,0,0-.4-1.1l-14-19-.1-.1c-.1-.1-.2-.2-.2-.3h0a1.59,1.59,0,0,0-1.2-.4C57,13.61,20.9,13.71,20.9,13.71Zm20.1,47H8.8V36.51H41Zm1.9-33h-2a1.9,1.9,0,1,0,0,3.8h1.9l-.9,1.2H10.7l4.6-6.2H16a2,2,0,0,0,1.9-1.9,1.5,1.5,0,0,0-.4-1.1l1.5-2h1a2,2,0,0,0,1.9-1.9,1.9,1.9,0,0,0-.5-1.3l.6-.8H53.2l-.4.5a1.49,1.49,0,0,0-.9-.2h-2a1.9,1.9,0,0,0,0,3.8h.3L49,23.21a2.1,2.1,0,0,0-1.1-.4h-2a1.9,1.9,0,0,0,0,3.8h.6l-1.8,2.5A2,2,0,0,0,42.9,27.71Zm26.1,33H44.8V35.21l12.1-16.4L69,35.21v25.5Zm-12.4,2.8h2a2,2,0,0,0,1.9-1.9v-8a2,2,0,0,0-1.9-1.9h-2a2,2,0,0,0-1.9,1.9v8A1.84,1.84,0,0,0,56.6,63.51Zm-26-10h2a2,2,0,0,0,1.9-1.9v-8a2,2,0,0,0-1.9-1.9h-2a2,2,0,0,0-1.9,1.9v8A1.9,1.9,0,0,0,30.6,53.51Zm-12.8,0h2a2,2,0,0,0,1.9-1.9v-8a2,2,0,0,0-1.9-1.9h-2a2,2,0,0,0-1.9,1.9v8A1.84,1.84,0,0,0,17.8,53.51Zm28-33.9a2,2,0,0,0-1.9-1.9h-2a1.9,1.9,0,1,0,0,3.8h2A1.84,1.84,0,0,0,45.8,19.61Zm-11.9,1.9h2a1.9,1.9,0,0,0,0-3.8h-2a2,2,0,0,0-1.9,1.9A1.9,1.9,0,0,0,33.9,21.51Zm-8,0h2a1.9,1.9,0,1,0,0-3.8h-2a2,2,0,0,0-1.9,1.9A1.9,1.9,0,0,0,25.9,21.51Zm-.1,3.1a2,2,0,0,0-1.9-1.9h-2a1.9,1.9,0,1,0,0,3.8h2A1.84,1.84,0,0,0,25.8,24.61Zm14.1-1.9h-2a1.9,1.9,0,1,0,0,3.8h2a2,2,0,0,0,1.9-1.9A1.9,1.9,0,0,0,39.9,22.71Zm-6.1,1.9a2,2,0,0,0-1.9-1.9h-2a1.9,1.9,0,1,0,0,3.8h2A1.84,1.84,0,0,0,33.8,24.61Zm-14.9,3.1h-2a1.9,1.9,0,1,0,0,3.8h2a2,2,0,0,0,1.9-1.9A1.9,1.9,0,0,0,18.9,27.71Zm16,0h-2a1.9,1.9,0,1,0,0,3.8h2a2,2,0,0,0,1.9-1.9A1.9,1.9,0,0,0,34.9,27.71Zm-8,0h-2a1.9,1.9,0,1,0,0,3.8h2a2,2,0,0,0,1.9-1.9A1.9,1.9,0,0,0,26.9,27.71Z"/>
            <rect class="cls-2" width="78" height="78.17"/>
        </g>
    </g>
</svg>