<svg id="Layer_1" data-name="Layer 1" xmlns="http://www.w3.org/2000/svg" viewBox="0 0 29.06244 28.38459"><defs><style>.cls-1{fill:#c28787;}.cls-2,.cls-4{fill:#fff;}.cls-2,.cls-3{stroke:#c38888;stroke-linecap:round;stroke-linejoin:round;}.cls-3{fill:none;}.cls-4{stroke:#c28787;stroke-miterlimit:10;}</style></defs><title>Cristales</title><path class="cls-1" d="M6.028,0H23.19356a5.86888,5.86888,0,0,1,5.86888,5.86888v22.5157a0,0,0,0,1,0,0H0a0,0,0,0,1,0,0V6.028A6.028,6.028,0,0,1,6.028,0Z"/><path class="cls-2" d="M5.07866,10.22959V6.64576S4.42393,4.11452,8.54892,4.16139l8.25035-.14062.0097,6.05181" transform="translate(-3.09235 -1.69863)"/><path class="cls-2" d="M30.48187,10.22959V6.64576s.65473-2.53124-3.47026-2.48437l-8.25035-.14062-.0097,6.05181" transform="translate(-3.09235 -1.69863)"/><line class="cls-3" x1="13.48492" y1="8.53096" x2="1.77973" y2="8.53096"/><line class="cls-3" x1="27.64114" y1="8.53096" x2="15.93596" y2="8.53096"/><rect class="cls-4" x="2.23091" y="10.57212" width="11.2031" height="14.95309"/><rect class="cls-4" x="15.94182" y="10.57212" width="11.2031" height="14.95309"/></svg>