<svg class="icono" xmlns="http://www.w3.org/2000/svg" viewBox="0 0 77.96 104.03">
    <defs><style>.cls-1{fill:#989a9b;}.cls-2{fill:none;}</style></defs>
    <g id="Capa_2" data-name="Capa 2">
        <g id="Capa_1-2" data-name="Capa 1">
            <path class="cls-1" d="M72.2,28.08l-14-12a.1.1,0,0,1-.1-.1l-.1-.1c-.1,0-.1-.1-.2-.1a.1.1,0,0,1-.1-.1c-.1,0-.1,0-.2-.1H39.9v-4.1A2,2,0,0,0,38,9.58H29a1.9,1.9,0,0,0-1.9,1.9v4.1H21a1.66,1.66,0,0,0-1.2.5l-14,12a2.1,2.1,0,0,0-.7,1.4v63A2,2,0,0,0,7,94.38H42a.9.9,0,0,0,.5-.1c.2,0,.3.1.5.1H71a1.9,1.9,0,0,0,1.9-1.9v-63A2.1,2.1,0,0,0,72.2,28.08ZM30.8,13.38H36v2.2H30.8Zm-22,77.2V32.38H41v58.2Zm60.2,0H44.8V30.38L56.9,20,69,30.38v60.2Zm-16.1-55h-2a1.9,1.9,0,0,0-1.9,1.9v8a2,2,0,0,0,1.9,1.9h2a1.9,1.9,0,0,0,1.9-1.9v-8A1.84,1.84,0,0,0,52.9,35.58Zm9,11.8h2a1.9,1.9,0,0,0,1.9-1.9v-8a2,2,0,0,0-1.9-1.9h-2a1.9,1.9,0,0,0-1.9,1.9v8A2,2,0,0,0,61.9,47.38Zm-9,6.2h-2a1.9,1.9,0,0,0-1.9,1.9v8a2,2,0,0,0,1.9,1.9h2a1.9,1.9,0,0,0,1.9-1.9v-8A1.84,1.84,0,0,0,52.9,53.58ZM58.7,74H55.5a3.12,3.12,0,0,0-3.1,3.1v13a3.12,3.12,0,0,0,3.1,3.1h3.2a3.12,3.12,0,0,0,3.1-3.1v-13A3.12,3.12,0,0,0,58.7,74Zm3.2-8.6h2a1.9,1.9,0,0,0,1.9-1.9v-8a2,2,0,0,0-1.9-1.9h-2a1.9,1.9,0,0,0-1.9,1.9v8A2,2,0,0,0,61.9,65.38Zm-38-18h2a1.9,1.9,0,0,0,1.9-1.9v-8a2,2,0,0,0-1.9-1.9h-2a1.9,1.9,0,0,0-1.9,1.9v8A2,2,0,0,0,23.9,47.38Zm9,0h2a1.9,1.9,0,0,0,1.9-1.9v-8a2,2,0,0,0-1.9-1.9h-2a1.9,1.9,0,0,0-1.9,1.9v8A2,2,0,0,0,32.9,47.38Zm-9,18h2a1.9,1.9,0,0,0,1.9-1.9v-8a2,2,0,0,0-1.9-1.9h-2a1.9,1.9,0,0,0-1.9,1.9v8A2,2,0,0,0,23.9,65.38Zm9,0h2a1.9,1.9,0,0,0,1.9-1.9v-8a2,2,0,0,0-1.9-1.9h-2a1.9,1.9,0,0,0-1.9,1.9v8A2,2,0,0,0,32.9,65.38Zm0,18h2a1.9,1.9,0,0,0,1.9-1.9v-8a2,2,0,0,0-1.9-1.9h-2a1.9,1.9,0,0,0-1.9,1.9v8A2,2,0,0,0,32.9,83.38Zm-18-36h2a1.9,1.9,0,0,0,1.9-1.9v-8a2,2,0,0,0-1.9-1.9h-2a1.9,1.9,0,0,0-1.9,1.9v8A2,2,0,0,0,14.9,47.38Zm0,18h2a1.9,1.9,0,0,0,1.9-1.9v-8a2,2,0,0,0-1.9-1.9h-2a1.9,1.9,0,0,0-1.9,1.9v8A2,2,0,0,0,14.9,65.38Zm0,18h2a1.9,1.9,0,0,0,1.9-1.9v-8a2,2,0,0,0-1.9-1.9h-2a1.9,1.9,0,0,0-1.9,1.9v8A2,2,0,0,0,14.9,83.38Zm9,0h2a1.9,1.9,0,0,0,1.9-1.9v-8a2,2,0,0,0-1.9-1.9h-2a1.9,1.9,0,0,0-1.9,1.9v8A1.9,1.9,0,0,0,23.9,83.38Z"></path>
            <rect class="cls-2" width="77.96" height="104.03"></rect>
        </g>
    </g>
</svg>