<svg id="Layer_1" data-name="Layer 1" xmlns="http://www.w3.org/2000/svg" viewBox="0 0 96.60955 85.59622"><defs><style>.cls-1{fill:#c38989;}.cls-2{fill:#fff;}.cls-3{fill:#fffefe;}.cls-4{fill:#e1c4c3;}</style></defs><title>Derrumbes</title><path class="cls-1" d="M50.938,2.59412h3a32.609,32.609,0,0,1,13.3397,7.2953,5.89962,5.89962,0,0,0,6.82083,1.24637c4.26587-1.64286,8.834-1.06056,13.28656-.61319,2.874.28877,4.361,2.12925,4.71231,4.942a46.39977,46.39977,0,0,1,.25365,7.454c-.14924,4.07019.98607,7.36,4.37836,9.992a8.41432,8.41432,0,0,1,3.38722,8.77117c-5.49852,3.75639-6.04444,9.22055-5.81072,15.29149.30006,7.79372.23065,15.61328-.03762,23.41772-.12323,3.58539-.98385,6.711-5.54339,6.70149q-12.84927.00465-25.68505.00064c-4.10929.10551-5.43411-2.26735-5.47987-5.9786-.03873-3.1414.11591-6.29586-.205-9.4236-.32168-3.13509-1.23761-6.20192-5.09966-6.11746-3.56454.078-4.41629,3.02289-4.72308,5.96307-.34356,3.29254-.152,6.6121-.237,9.91913-.0911,3.54693-1.51066,5.67335-5.3236,5.63713-8.5736-.005-17.13892.01685-25.70228-.01122-3.97065-.29072-4.636-3.02591-4.69981-6.27533-.16557-8.42913-.13189-16.85963-.04932-25.28755.0498-5.0843.11381-10.00283-5.2252-12.87895-.65432-.35247-.90582-1.35349-1.357-2.04562v-2c1.24225-3.82122,4.06254-6.35954,7.13107-8.66328,5.57892-4.18847,11.0132-8.563,16.55933-12.79326,4.11531-3.13889,6.25492-3.06044,10.03075.40093.9803.89865,1.93411,1.8282,2.83124,2.80972,5.22187,5.7131,6.09334,8.81318,2.1098,14.46585a15.89918,15.89918,0,0,0-1.86391,4.12076,15.414,15.414,0,0,1,3.1723-5.1455c3.91069-3.90308,3.82126-7.9231,1.12854-12.61035C41.69822,13.62618,43.58667,7.13106,50.938,2.59412Z" transform="translate(-4.4064 -2.5295)"/><path class="cls-2" d="M50.938,2.59412a12.4692,12.4692,0,0,1-1.20034,2.67231c-4.66213,6.06277-4.64449,12.06472.02912,18.09974,2.42477,3.1311,1.76685,5.86192-.5786,8.92128-2.99788,3.91036-7.86788,7.42279-3.55691,14.17962-8.72145-4.81989-8.72145-4.81989-4.64038-11.9511a12.31954,12.31954,0,0,0-5.56384-17.0972c-2.36785-1.167-3.76735.50667-5.28173,1.66962C21.719,25.55924,13.3359,32.08629,4.938,38.59412c0-11.16667.07462-22.33427-.06495-33.49919C4.84616,2.94354,5.28886,2.51182,7.43854,2.53,21.9375,2.653,36.438,2.59412,50.938,2.59412Z" transform="translate(-4.4064 -2.5295)"/><path class="cls-2" d="M100.10991,40.599c-.2663-3.39087-3.2198-4.526-5.44467-6.04149-3.34962-2.28163-5.195-5.00849-4.569-9.1542a16.862,16.862,0,0,0,.01738-2.49426c-.00175-10.75635-.00175-10.75634-10.5802-10.47746-4.61205.12158-4.61205.12158-6.32051,5.27889L53.938,2.59412c14.74659,0,29.49369.06021,44.23924-.0634,2.27326-.01906,2.87216.35043,2.83728,2.77211-.16943,11.76169-.07652,23.52716-.07652,35.29129C100.66507,41.12484,100.38919,41.152,100.10991,40.599Z" transform="translate(-4.4064 -2.5295)"/><path class="cls-2" d="M100.10991,40.599q.414-.00213.82809-.00485c0,14.66666-.06968,29.334.06721,43.99937.02337,2.50323-.54926,3.2724-3.07218,3.05959-2.97881-.25126-5.995-.059-8.995-.059q-1.04865-.603.14048-.82487c2.94972-1.1041,2.3716-3.73544,2.3885-5.93673.08292-10.8026.20558-21.60978-.034-32.40762-.09953-4.48483.43054-7.56188,5.99571-6.77787C98.25677,41.76369,99.213,40.971,100.10991,40.599Z" transform="translate(-4.4064 -2.5295)"/><path class="cls-3" d="M4.938,40.59412a7.06616,7.06616,0,0,0,1.74342.92113c7.08094,1.45992,7.08421,1.44569,7.08476,8.64963.00079,10.307-.02329,20.61407.0219,30.92084.00911,2.07614-.57331,4.46448,2.04777,5.63279q1.14117.31062.10215.87561c-3.66667,0-8.76422,1.43089-10.59756-.40245S4.938,80.26078,4.938,76.59412Z" transform="translate(-4.4064 -2.5295)"/><path class="cls-2" d="M43.04176,86.7197c2.38837-1.01534,2.02285-3.17263,2.05132-5.10867.05834-3.96751-.08439-7.94083.07114-11.90331.16749-4.26753,2.02753-7.38455,6.68225-7.77869,4.42164-.37441,7.65712,2.64392,7.99371,7.61653.26743,3.951.07029,7.93263.10722,11.90042.01824,1.95944-.28314,4.06043,1.9324,5.21572q1.0884.4001.0582.93242h-19Q41.89855,87.0274,43.04176,86.7197Z" transform="translate(-4.4064 -2.5295)"/><path class="cls-4" d="M43.04176,86.7197a4.96442,4.96442,0,0,0-.10376.87442h-27a4.79971,4.79971,0,0,0-.10215-.87561Z" transform="translate(-4.4064 -2.5295)"/><path class="cls-4" d="M61.938,87.59412a2.22273,2.22273,0,0,0-.05821-.93242l27.19868.10754a8.09813,8.09813,0,0,1-.14047.82488Z" transform="translate(-4.4064 -2.5295)"/></svg>