<svg id="Layer_1" data-name="Layer 1" xmlns="http://www.w3.org/2000/svg" viewBox="0 0 135.12443 138"><defs><style>.cls-1{fill:#c38989;}.cls-2{fill:#d2a6a5;}.cls-3{fill:#f0e3e2;}.cls-4{fill:#e9d3d2;}</style></defs><title>Distancia de la costa</title><path class="cls-1" d="M115.3832,5.16477c11.47665,1.49177,19.48881,15.02578,19.60785,27.30637-13.2521-8.92914-26.7235-15.01838-41.85127-4.92682a61.08265,61.08265,0,0,1,21.20095,3.81337c11.02148,4.31918,20.73342,10.25387,24.1136,22.60991,3.473,12.6952-2.40922,22.98485-9.18408,32.92-.42517.62349-.98378,1.53545-1.96524,1.03373-1.08065-.55244-.76839-1.72367-.86741-2.67993a53.03324,53.03324,0,0,0-16.24955-33.35651,50.01513,50.01513,0,0,0-15.89946-10.0931C87.38867,38.87,80.92806,40.41836,74.50587,43.17555c-18.65382,8.00851-29.13515,22.47-33.12253,42.03991-.25575,1.25521.07422,2.7284-1.69571,3.7583C34.26341,77.34793,30.213,65.55437,32.536,52.50505c2.55505-14.35282,15.20328-24.78357,31.76723-26.39383,1.73377-.61809,3.53371-.15113,5.29209-.32965.81875-.08312,2.14708.30238,1.62455-1.394C57.2208,16.7366,43.95828,20.70719,32.4741,36.19155c-1.85445-2.39121-.472-4.76556-.17128-6.98657C33.9464,17.06657,40.05439,8.57679,52.27,5.17908c.40959-.11392.71841-.59017,1.0742-.89752h11c6.63593.81926,12.84855,2.72777,18.21964,6.91069,2.509,1.954,4.86828,1.10533,7.32384-.385,5.8536-3.55259,11.95277-6.46233,19.09068-6.00907C111.11282,4.9733,113.286,4.407,115.3832,5.16477Z" transform="translate(-4.35924 -4.28156)"/><path class="cls-1" d="M4.35924,121.31072a6.81175,6.81175,0,0,1,2.40448.28879C27.929,133.087,49.92036,131.568,72.16033,125.75432c9.14557-2.3907,17.98665-5.99208,27.47588-7.00671,15.2727-1.633,30.25127,6.7841,38.57458,18.62463.32228.45847.12883,1.27947.1757,1.93155-1.81956.58977-3.23866-.47217-4.628-1.27777-10.97658-6.36456-22.821-6.3226-34.78265-4.4729-8.02817,1.24147-15.72666,4.01564-23.58372,6.05972-6.26364,1.62956-12.709,1.71542-19.04788,2.66872h-6a13.001,13.001,0,0,0-8,0h-6a49.84544,49.84544,0,0,1-25.81658-11.87293C7.72274,127.94566,4.39029,125.71061,4.35924,121.31072Z" transform="translate(-4.35924 -4.28156)"/><path class="cls-2" d="M42.34421,142.28156a7.46431,7.46431,0,0,1,8,0Z" transform="translate(-4.35924 -4.28156)"/><path class="cls-3" d="M108.3104,5.18033a6.43564,6.43564,0,0,0,.03381-.89877h7a7.12805,7.12805,0,0,0,.03839.88522Q111.8471,5.17155,108.3104,5.18033Z" transform="translate(-4.35924 -4.28156)"/><path class="cls-1" d="M41.214,125.00325c.308-2.0291,1.90994-2.22257,2.92223-2.81441,19.344-11.30978,28.19615-29.33009,32.13781-50.3866a177.14306,177.14306,0,0,0,2.02919-17.784c.377-4.49361,3.31579-7.97619,7.50735-8.32732,3.188-.26706,7.02909,3.78312,7.26309,8.08292.76088,13.981.47045,27.90927-2.905,41.60425-.63465,2.575-1.40061,5.12717-2.27015,7.6329-3.538,10.1954-9.43795,17.17682-21.17043,18.79024C58.26958,122.96441,49.90507,124.6072,41.214,125.00325Z" transform="translate(-4.35924 -4.28156)"/><path class="cls-4" d="M71.21987,24.38762c1.052,1.69494,1.05335,1.83024.27192,1.83782-2.39563.02321-4.79235-.06707-7.1886-.11372C66.2559,24.12063,69.27335,26.40288,71.21987,24.38762Z" transform="translate(-4.35924 -4.28156)"/></svg>