<svg id="Layer_1" data-name="Layer 1" xmlns="http://www.w3.org/2000/svg" viewBox="0 0 288.54766 51.55176"><defs><style>.cls-1{fill:#fff;}.cls-2{fill:#c38989;}.cls-3{fill:#fffefe;}</style></defs><title>Distancia de la costa estrellas</title><path class="cls-1" d="M204.70659,3.39521h59c1.61676,5.11963-2.39554,8.67317-3.68689,12.9748-1.61774,5.38881-5.8772,6.69762-11.035,6.39368-2.62929-.15495-5.19345.73588-8.17392.95517,3.36447,2.65429,6.0287,5.62889,9.18,8.07205,2.14972,1.66662,3.26709,3.88419,2.66139,6.56655-1.13154,5.011-1.84564,10.139-3.871,14.92266q-.54274.55331-1.07455,1.11509h-27A6.4772,6.4772,0,0,1,218.86134,51.97c-.86668-3.87885-1.72258-7.76589-2.76869-11.60289-1.029-3.77405-.24561-6.79832,3.03-9.18071,2.80664-2.04134,5.09636-4.69059,7.99512-7.15261A31.59592,31.59592,0,0,0,216.8325,22.6811c-3.7536.04943-6.622-1.57588-7.78784-5.03162C207.45964,12.951,203.23523,9.01756,204.70659,3.39521Z" transform="translate(-3.22331 -3.32673)"/><path class="cls-1" d="M187.70659,54.39521h-25a7.8893,7.8893,0,0,1-1.86045-2.28743c-1.27435-3.26492-1.73677-6.76575-2.8256-10.07486-1.69382-5.14772-.1926-9.01554,4.03738-12.193,2.23349-1.67772,4.63533-3.23651,6.45538-5.9211a22.01984,22.01984,0,0,0-8.37072-1.22444c-5.71257.40631-8.97182-2.26405-10.78249-7.54673A47.80018,47.80018,0,0,0,144.51842,4.7678a1.31617,1.31617,0,0,1,.18817-1.37259h59c.345,6.8284-3.19857,12.21386-6.738,17.51286-1.15628,1.73109-3.48752,1.778-5.50058,1.74354a66.57564,66.57564,0,0,0-11.04714,1.21657c3.9129,2.56526,6.57488,5.72627,9.76,8.31882,1.98408,1.615,2.95437,3.61227,2.30767,6.12408-1.27742,4.96162-1.95585,10.07734-3.80841,14.89318Q188.217,53.82046,187.70659,54.39521Z" transform="translate(-3.22331 -3.32673)"/><path class="cls-1" d="M144.70659,3.39521l.03242,1.09018c.39227,6.31208-2.68727,11.39613-6.06891,16.2471-1.28222,1.83937-3.79452,1.906-5.991,1.92334a37.08335,37.08335,0,0,0-9.90625,1.2392c2.25747,2.88261,4.97786,4.812,7.52943,6.92153,2.79088,2.30734,4.2197,5.18233,3.34837,8.80861-.93115,3.87516-1.42144,7.865-2.90187,11.60505a9.99954,9.99954,0,0,1-2.04223,3.165h-25a6.488,6.488,0,0,1-1.84221-2.41881c-.91628-4.2245-1.92214-8.43225-2.81912-12.66566-.70117-3.30925.07261-5.85936,2.80811-7.89026,2.92364-2.17059,5.316-4.92523,8.36587-7.43943a39.10635,39.10635,0,0,0-10.23153-1.32327c-1.8449-.00613-3.96565.04519-5.15813-1.42561-4.196-5.1753-7.31508-10.86921-7.123-17.837Z" transform="translate(-3.22331 -3.32673)"/><path class="cls-1" d="M70.70659,54.39521h-24a12.35484,12.35484,0,0,1-.93073-1.21671c-1.71134-5.56011-4.23723-11.2526-3.60875-16.9469.65779-5.95981,7.62021-7.7493,11.25157-12.36239a21.90938,21.90938,0,0,0-8.39373-1.13108c-5.72485.54831-9.06574-2.004-10.84757-7.329-.83787-2.504-2.02428-4.91549-3.06829-7.36207-.6306-1.4778-1.697-2.9813-.4025-4.65184h56c.335,6.84073-3.21106,12.2317-6.76183,17.54547-1.05154,1.57365-3.17849,1.724-5.03181,1.69494a74.60363,74.60363,0,0,0-11.541,1.20392c3.912,2.54608,6.58638,5.71308,9.77847,8.31458,1.98188,1.61519,2.99711,3.60531,2.343,6.12616-1.2892,4.96856-1.62346,10.18235-3.81145,14.92184Q71.21783,53.8193,70.70659,54.39521Z" transform="translate(-3.22331 -3.32673)"/><path class="cls-2" d="M247.79323,53.16416c1.22487-4.96526,2.38612-9.94744,3.70115-14.88871.6682-2.51081-.46991-4.02536-2.25329-5.51462-3.65937-3.05578-7.21382-6.23715-11.6297-10.07866,5.23588-.484,9.549-1.19242,13.86181-1.19,3.93161.00215,6.1839-1.51886,7.31752-5.20024,1.35517-4.40073,4.0723-8.29256,4.91587-12.89667h1c3.40686,3.037,4.37707,7.3901,5.90185,11.37349,1.453,3.79583,3.76059,5.65879,7.86817,5.34436a27.63083,27.63083,0,0,1,8.3984.86286c1.40464.32843,3.38044.06262,3.80512,1.77367.4462,1.79777-1.10376,3.0119-2.4159,4.02669-2.241,1.73312-4.07592,3.96745-6.35955,5.575-3.47562,2.44678-3.74421,5.32661-2.65909,9.11375,1.08237,3.7775,2.57525,7.57634,1.892,11.6738-1.58359,1.52044-3.09583.22658-4.57123-.20862a15.52382,15.52382,0,0,1-3.013-1.70252c-10.68408-6.0425-7.38742-6.95675-18.68263.16106C252.737,52.73333,250.59889,54.36238,247.79323,53.16416Z" transform="translate(-3.22331 -3.32673)"/><path class="cls-2" d="M30.70659,3.39521c2.00194,4.87735,4.04432,9.73866,5.9892,14.63865,1.01226,2.55033,2.93077,3.25732,5.47664,3.38747,4.58847.23457,9.16532.69667,14.37453,1.114-3.5598,4.42439-7.79964,7.28413-11.56218,10.61426-1.70962,1.51314-2.3189,2.73742-1.6818,5.07356,1.34435,4.92949,2.2478,9.97923,3.33214,14.97963-4.126,1.33666-6.9396-1.621-9.54093-3.63984-4.69486-3.64357-8.57467-3.69689-13.2674-.06671-2.87952,2.22752-6.02354,4.83565-10.2789,4.03528-.542-4.55533,1.14362-8.77422,2.1625-13.05556.83606-3.51316.13453-5.96711-2.7896-8.17713a43.58657,43.58657,0,0,1-9.2142-8.90361v-1c4.068-2.12434,8.52788-2.28082,12.93609-2.29948,3.623-.01534,5.75461-1.54162,7.203-4.80481,1.79114-4.03531,2.84055-8.46078,5.86088-11.89571Z" transform="translate(-3.22331 -3.32673)"/><path class="cls-2" d="M70.74025,53.30159c1.16477-4.98747,2.22286-10.00339,3.54206-14.94967.60483-2.26783.03263-3.65843-1.75369-5.12323-3.81785-3.13068-7.42873-6.51377-11.98657-10.55861,5.40312-.48242,9.86611-1.13369,14.33772-1.19969,3.54027-.05225,5.479-1.5322,6.63459-4.73644,1.61821-4.48683,3.45115-8.89622,5.19223-13.33874h1c1.95043,4.908,3.9213,9.80812,5.84295,14.72742,1.00967,2.58467,3.04657,3.1662,5.56465,3.30284,4.57636.2483,9.14128.70736,14.74614,1.16252-4.29141,3.75916-7.75136,7.004-11.44976,9.9495-2.22169,1.76939-3.05815,3.44574-2.22253,6.37076,1.27084,4.4484,1.971,9.05984,2.91347,13.602-1.60948,2.15163-3.45186.77012-4.5606-.2121-7.71555-6.83513-15.18384-6.50318-22.83522.10622C74.47461,53.46782,72.65388,54.46962,70.74025,53.30159Z" transform="translate(-3.22331 -3.32673)"/><path class="cls-2" d="M187.74043,53.30143c1.14772-4.99393,2.17009-10.02153,3.49883-14.96683.61557-2.29106.031-3.65714-1.74526-5.1164-3.821-3.13914-7.44523-6.51764-11.99771-10.54878,5.38733-.48088,9.84856-1.07706,14.32368-1.212,3.21261-.09684,5.30124-1.14256,6.44211-4.27213,1.692-4.64147,3.61808-9.19764,5.44451-13.79012h1c1.19139,5.20854,3.96776,9.79,5.82827,14.73357.97875,2.6006,3.05854,3.1566,5.56931,3.29575,4.5752.25357,9.13925.70778,14.68137,1.15722-4.11774,3.653-7.357,6.93884-11.02263,9.64772-2.91056,2.15088-3.44734,4.30343-2.42157,7.66337,1.25294,4.10407,1.86862,8.4027,2.7599,12.61718-1.61687,2.153-3.44359.7586-4.57616-.21749-7.702-6.638-15.16148-6.90024-22.81208.10247C191.52171,53.4854,189.66,54.47,187.74043,53.30143Z" transform="translate(-3.22331 -3.32673)"/><path class="cls-1" d="M280.67286,53.30164c-1.15341-4.9893-2.18521-10.0113-3.51431-14.95336a4.342,4.342,0,0,1,1.71848-5.13661c3.82766-3.13558,7.47833-6.48718,11.73193-10.21532a50.49556,50.49556,0,0,0-13.46747-1.52719c-3.9729.14666-6.08712-1.62347-7.35571-5.21094-1.53583-4.34328-3.37262-8.58011-5.07919-12.863,8.16665,0,16.33529.09769,24.49868-.06579,2.15448-.04315,2.582.41692,2.56519,2.56629q-.17958,22.9986,0,45.999c.01675,2.14937-.39807,2.74439-2.56891,2.55909-2.81283-.2401-5.66165-.05859-8.495-.05859q-.522-.34878-.363-.71857Q280.504,53.30184,280.67286,53.30164Z" transform="translate(-3.22331 -3.32673)"/><path class="cls-1" d="M29.70659,3.39521c-.99966,5.60856-4.14635,10.38768-6.06484,15.643-.57344,1.57082-2.02645,2.11932-3.59352,2.23227C14.60229,21.663,9.154,22.0229,3.70659,22.39521c0-5.43956.17461-10.88728-.0788-16.315-.11472-2.45711.60613-2.79272,2.83831-2.74666C14.21006,3.49333,21.95934,3.39521,29.70659,3.39521Z" transform="translate(-3.22331 -3.32673)"/><path class="cls-1" d="M3.70659,23.39521c5.04546,2.66489,8.50563,7.26523,12.9726,10.64061,1.40478,1.0615,1.21627,2.65876.861,4.13C16.339,43.14032,15.07065,48.09855,13.828,53.063a.78077.78077,0,0,1-.12138,1.33223c-3.33334,0-7.96748,1.30082-9.63415-.36585s-.36585-6.30082-.36585-9.63415Z" transform="translate(-3.22331 -3.32673)"/><path class="cls-3" d="M128.70659,54.39521c.028-1.066-.17257-2.19387.81127-3.00158,3.90206-.17237,6.63688-2.87071,9.58347-4.81889,4.37668-2.8937,8.17853-3.48339,12.6452-.1449a54.86959,54.86959,0,0,0,10.22467,5.96809q.36771.99864.73539,1.99728Z" transform="translate(-3.22331 -3.32673)"/><path class="cls-3" d="M187.74043,53.30143c4.88319-1.34116,8.69591-4.63386,12.88478-7.20685,2.39862-1.47335,4.14774-1.57642,6.7302-.09066,4.11758,2.369,7.63923,6.05061,12.74534,6.50579q.30339.94307.60584,1.8855h-33Z" transform="translate(-3.22331 -3.32673)"/><path class="cls-3" d="M70.74025,53.30159c4.92623-1.248,8.72244-4.6069,12.92166-7.1506,2.682-1.62467,4.49293-1.39882,7.12907.08353,4,2.24926,7.33607,5.92526,12.31,6.27545q.30327.94293.60556,1.88524h-33Z" transform="translate(-3.22331 -3.32673)"/><path class="cls-3" d="M13.70659,54.39521q.06021-.66425.1209-1.33036c4.4004-.21791,7.52848-3.252,10.714-5.55827,4.32933-3.13434,7.65708-2.89434,11.81682.10545,3.12645,2.25463,6.24487,4.85944,10.277,5.59137q.03541.59529.07126,1.19181Z" transform="translate(-3.22331 -3.32673)"/><path class="cls-3" d="M280.67286,53.30164l.03373,1.09357h-33q.043-.61467.08636-1.23019c5.2229-.9309,8.91979-4.73928,13.31726-7.20349,2.3241-1.30236,3.89914-1.39428,6.24567-.01685C271.72243,48.50788,275.6436,51.9327,280.67286,53.30164Z" transform="translate(-3.22331 -3.32673)"/><path class="cls-2" d="M161.9712,52.39793c-2.09693,1.89306-3.5471-.36079-4.522-1.23132-8.03838-7.17795-15.82337-7.23474-23.70177.15387a7.54733,7.54733,0,0,1-2.99329,1.68618c-1.25086.35593-.9803-.93576-1.23611-1.613,4.47122-10.34181,4.37878-19.43493-6.89784-25.54648a27.37927,27.37927,0,0,1-3.35575-2.7202,57.5937,57.5937,0,0,1,14.28748-1.714c3.24434.02891,5.23341-1.26131,6.313-4.43655,1.43741-4.22751,3.23247-8.33341,4.874-12.49131,4.02153,1.84746,4.221,6.14614,5.34724,9.4518,1.91156,5.61093,4.92731,8.15362,10.9507,7.67917,3.25935-.25672,6.60483.57969,10.37837.97144-2.86711,4.459-7.21106,6.98232-10.80559,10.21749-1.98683,1.78819-2.68831,3.44766-1.96861,6.03453C159.88786,43.321,160.8751,47.87459,161.9712,52.39793Z" transform="translate(-3.22331 -3.32673)"/></svg>