<svg id="Layer_1" data-name="Layer 1" xmlns="http://www.w3.org/2000/svg" viewBox="0 0 1700.13038 1019.24792"><defs><style>.cls-1{fill:#fff;}.cls-2{fill:none;stroke:#fff;stroke-miterlimit:10;stroke-width:0;}</style></defs><title>Freeda bla </title><path class="cls-1" d="M1808.23955,530.25787a12.85839,12.85839,0,0,1-6.078,0c-30.115-.385-59.62921,1.34741-89.2077,2.584-30.88489,1.28906-61.764.36749-93.47717,1.44074-30.57587,1.0382-59.641,4.20544-89.55774,3.47052-2.76477-.07-5.442,1.04992-8.7959.09918-.32086-.08753-6.34619.15161-6.67285.15747-14.0047.29162-22.25818,1.93066-36.02368,2.30981-22.81818.63-45.49634.26245-68.12775.60077v-.02911c-2.64813.18658-5.74536-.735-8.4635-.79914-9.16339-.23333-15.7312-2.99224-24.498-7.98516-17.64441-10.04419-27.11115-28.51685-38.64264-45.088-6.177-8.87182-12.04486-18.02356-20.03583-25.43713-4.993-4.64294-11.32166-10.24249-18.80512-5.2204-10.12591,2.63648-12.69238,12.23151-15.673,20.53168-6.81854,18.99176-17.04358,40.585-23.36053,59.75757-1.45246,4.398-1.63318,4.9638-2.67151,8.9826l-13.73053,45.41461c-1.53406,2.88141-4.77716,9.46094-6.36359,11.33326-1.91321,2.26318-4.3689,4.43884-6.32281,4.43884-3.01569,0-5.38965-2.35651-7.09864-6.71362a69.82038,69.82038,0,0,1-3.85553-15.42792,178.58963,178.58963,0,0,1-1.64483-17.91858q-.3675-9.02041-.48993-13.993a17.32626,17.32626,0,0,0-1.40576-6.53864c-.85743-1.919-1.85486-2.86981-2.99811-2.86981q-1.83729,0-3.173,2.479a15.01064,15.01064,0,0,0-1.5924,6.14782,160.61635,160.61635,0,0,1-2.99805,23.53559,103.24534,103.24534,0,0,1-4.75964,16.46612c-1.76154,4.36884-3.58716,7.59436-5.50623,9.68256-1.90735,2.094-3.60468,3.13812-5.06873,3.13812a6.31867,6.31867,0,0,1-5.13293-2.61316,20.01831,20.01831,0,0,1-3.30719-6.79529,50.331,50.331,0,0,1-1.70325-9.29174q-.49869-5.09208-.49579-10.06751a138.85689,138.85689,0,0,1,2.38562-27.58356,90.10261,90.10261,0,0,1,5.932-19.35925q3.53485-7.71689,7.8219-11.37408c2.8465-2.43811,5.54706-3.65717,8.06683-3.65717a8.90127,8.90127,0,0,1,4.5788,1.17236,15.13957,15.13957,0,0,1,3.4881,2.74732,17.85509,17.85509,0,0,1,2.32721,3.0039c.56.96241.93915,1.61573,1.09662,1.96564.89239,1.91321,1.99487,2.88147,3.29559,2.88147,1.22491,0,2.28644-1.00909,3.17889-3.01556a16.80649,16.80649,0,0,0,1.3415-6.92945,18.97106,18.97106,0,0,0-1.3415-7.0578c-.07586-.175-.51916-1.00323-1.34155-2.4848a30.23251,30.23251,0,0,0-8.92425-9.6767,11.9066,11.9066,0,0,0-6.97034-2.22235q-5.61695,0-11.67145,5.23212-6.04587,5.22336-11.06494,15.68457-5.00464,10.46411-8.24768,26.02618a177.89174,177.89174,0,0,0-3.2431,35.95374c0,2.63062.14,5.11542.27417,7.5885-.12836.37915-.22748.76416-.385,1.14911a80.61081,80.61081,0,0,1-8.37012,15.2879q-4.49725,6.22953-9.37927,6.23535-12.66028,0-19.31836-54.33306,3.67466-15.285,8.166-36.44367,4.47958-21.17331,8.49848-46.1029,4.01586-24.92679,6.731-52.21576,2.72114-27.27146,2.72406-54.56049,0-12.69525-.9566-23.27893a112.43955,112.43955,0,0,0-2.9223-18.11688,34.92172,34.92172,0,0,0-5.0979-11.759q-3.1323-4.226-7.6236-4.23468-5.03082,0-8.97088,6.00208-3.94593,5.98443-6.871,16.34369a195.05984,195.05984,0,0,0-4.958,23.98468q-2.04722,13.64007-3.26636,28.81427-1.22488,15.1713-1.7732,31.04248-.54244,15.87991-.54248,30.45917,0,33.40474,1.90155,60.44006,1.90732,27.06153,4.223,47.74774-4.086,17.63855-7.40778,28.4585a131.0747,131.0747,0,0,1-6.12451,16.69366c-1.86066,3.92548-3.59882,6.5503-5.23786,7.886a7.50979,7.50979,0,0,1-4.61969,2.00067q-5.31069,0-8.096-6.58533-2.791-6.59692-2.78809-18.35009a105.51068,105.51068,0,0,1,2.51984-24.6905,64.44251,64.44251,0,0,1,6.39868-17.06109,33.76041,33.76041,0,0,1,8.49847-10.225,23.25807,23.25807,0,0,1,8.69678-4.46795,4.97073,4.97073,0,0,0,3.2547-3.0564,13.48923,13.48923,0,0,0,1.23071-5.87952,11.99021,11.99021,0,0,0-1.48736-6.23535c-1.00324-1.64484-2.18732-2.47314-3.54633-2.47314q-6.2558,0-12.57568,5.4129-6.32575,5.40711-11.49073,15.17712a98.96284,98.96284,0,0,0-8.4284,23.39557,126.08081,126.08081,0,0,0-3.19068,26.87781c-.35571.94495-.65325,1.8432-1.04406,2.8056a66.94212,66.94212,0,0,1-8.93006,16.43115q-4.90841,6.282-10.88995,6.27613a12.5979,12.5979,0,0,1-9.91583-4.67212,36.11218,36.11218,0,0,1-6.60865-12.41815,70.34162,70.34162,0,0,0,8.936-12.03315,87.42407,87.42407,0,0,0,7.15692-15.22961,108.24387,108.24387,0,0,0,4.707-17.901,117.26829,117.26829,0,0,0,1.71491-20.57831,78.00219,78.00219,0,0,0-1.34162-15.22961,50.263,50.263,0,0,0-3.55218-11.36243,23.25129,23.25129,0,0,0-4.95209-7.21521,8.28922,8.28922,0,0,0-5.57037-2.53729q-4.77714,0-8.74927,4.81793-3.981,4.80331-6.85944,13.35138a108.71531,108.71531,0,0,0-4.40381,20.04755,190.72881,190.72881,0,0,0-1.534,25.11627c0,3.20807.175,6.41614.32666,9.62427-.06421.26824-.08161.53076-.14582.799a184.2154,184.2154,0,0,1-7.22686,22.71319,67.13374,67.13374,0,0,1-8.93018,16.43115q-4.90833,6.282-10.89575,6.27613a12.57846,12.57846,0,0,1-9.91-4.67212,36.21639,36.21639,0,0,1-6.6145-12.41815,69.72537,69.72537,0,0,0,8.936-12.03315,87.43351,87.43351,0,0,0,7.16278-15.22961,109.4191,109.4191,0,0,0,4.70709-17.901,117.28452,117.28452,0,0,0,1.709-20.57831,77.55167,77.55167,0,0,0-1.34149-15.22961,49.97711,49.97711,0,0,0-3.55218-11.36243,23.0577,23.0577,0,0,0-4.95215-7.21521,8.2782,8.2782,0,0,0-5.57031-2.53729q-4.76853,0-8.74933,4.81793-3.9722,4.80331-6.85358,13.35138a108.68226,108.68226,0,0,0-4.40967,20.04755,190.77728,190.77728,0,0,0-1.52826,25.11627c0,1.69739.12836,3.38891.175,5.08044-.55414,2.7356-1.19574,5.67536-2.164,9.07007a210.26816,210.26816,0,0,1-6.85937,20.23419,87.63237,87.63237,0,0,1-8.35846,16.34363q-4.53224,6.78947-9.671,6.79529A6.87224,6.87224,0,0,1,938.654,604.131a12.45817,12.45817,0,0,1-3.8205-4.72454,35.46508,35.46508,0,0,1-2.98065-9.08179,71.88913,71.88913,0,0,1-1.20148-14.41882q0-6.05448.36158-12.354c.23327-4.2113.5133-8.446.8399-12.72729.30914-4.28125.595-8.44013.82831-12.47644q.36748-6.06327.36157-11.63074,0-13.81512-3.58716-19.8667a11.38124,11.38124,0,0,0-10.37665-6.05451c-1.19574,0-2.4439.035-3.7622.1225-1.31238.07-2.64814.11664-4.00128.11664q0-4.84707-.41413-11.38574-.42-6.53568-1.37073-12.4823a44.64708,44.64708,0,0,0-2.689-10.05q-1.72367-4.121-4.47382-4.12384-2.3886,0-4.7771,4.97546a72.821,72.821,0,0,0-4.29876,11.74738,125.31463,125.31463,0,0,0-3.039,13.80634,73.78065,73.78065,0,0,0-1.13739,11.1524,25.28854,25.28854,0,0,0,1.20153,8.71429,10.26991,10.26991,0,0,0,3.03888,4.60212,7.84647,7.84647,0,0,0,3.99561,1.69738,35.60421,35.60421,0,0,0,4.18213.24494q-1.0762,10.66543-1.79071,15.74872-.71751,5.08337-1.18988,7.26776c-.10505.44916-.18085.77-.26245,1.12573a181.53228,181.53228,0,0,1-6.05457,17.8894,147.2667,147.2667,0,0,1-9.51337,19.9892,144.96529,144.96529,0,0,1-12.70392,18.6651,96.71553,96.71553,0,0,1-15.81286,15.6612c0-4.39209.01166-9.58918.05249-15.562q.06116-8.96805.06409-18.76428V544.12841q6.46581-20.40325,12.16741-41.43658,5.70447-21.02454,9.93915-43.09314,4.22589-22.0482,6.702-45.55463a467.60434,467.60434,0,0,0,2.47308-48.65772q0-11.95147-.94488-22.87634a116.97,116.97,0,0,0-3.05646-19.07348,40.25114,40.25114,0,0,0-5.52368-12.98981c-2.28064-3.23139-5.05707-4.84705-8.35846-4.84705q-6.22953,0-10.28333,10.0033-4.05972,10.00048-6.41028,29.17016-2.35372,19.17838-3.40643,47.007-1.05863,27.82269-1.41156,63.28644-.23629,18.54849-.35583,39.27264-.11371,20.7183-.23328,42.16572c-.02332,4.25213-.035,8.47515-.05249,12.72149l-.21582.02912.1983,4.66632q-.06116,12.68646-.105,25.34954-.06124,21.33957-.12256,40.82416c-.035,12.51154-.05829,24.218-.05829,35.1955l-.5191,8.29431s-4.50879,41.17993-14.81543-3.93134l-2.934-14.98462c-.315-5.70458-.61822-10.27166-.65906-11.61322-.47833-3.593-.875-10.0675-.9566-14.378-.47833-25.80456-5.04547-51.30578-6.562-76.95288q-4.64594-78.38479-9.64758-156.74633c-2.97474-47.3219-4.81214-83.3631-9.99744-130.50428-.43756-4.048-.67084-2.81146-2.39154-6.55029-1.50482-3.27228-1.59821-3.51721-6.87116-5.90869-3.84381-1.74988-5.43615,0-7.82763,2.07062-5.51789,4.7771-5.2262,5.76294-5.11542,12.94317.455,29.84088-3.278,54.8346-3.733,84.623-1.66236,108.84106,7.12188,219.0412,2.6131,327.91144-2.31568,55.93127.16333,109.50018.64166,165.52478.7583,35.79626.47827,130.9768.47827,166.563,0-3.89637-1.43488,47.29278-7.67023,31.71319-.23913-.60077-2.47308-100.1734-2.39727-100.81506.0816-.67664-.63-3.09137-.63581-3.83215-.09918-7.43689-.36163-9.41425-.25659-13.10645.04083-1.219.11664-2.619.25659-4.468.00586-.08166,0-3.7622,0-3.838.01752-2.30981-.29748-3.77386-.3208-6.06616.035-3.26642.525-7.93268.3208-11.18744-1.919-31.15332.63581-63.11151.15753-96.18964-.78741-54.18725-3.66888-108.05365-3.59893-162.26422.01165-4.52038-.05249-9.04089-.34992-13.54968-4.32214-66.23791-4.79455-132.6275-7.20361-198.94122-1.674-45.99207-4.18213-89.2193-5.14459-135.23474-.06415-3.16138.23333-6.91193,0-10.06751-2.549-35.073-1.31232-72.60162-3.838-107.68622.96241-27.321-.63586-53.84314-2.39148-80.84338-.02923-.22754-.28582-2.8114-.32086-3.03894-.31488-7.66431.16333-11.81732-2.07641-20.92822-1.42914-5.82709-1.23072-9.94507-3.354-16.29706-.65326-2.08228-.75818-3.313-1.27734-5.43042-.91-3.7038-2.04151-2.858-7.03436-3.03888-7.34949-.25665-5.7746,3.30139-7.02863,6.39288-.92163,2.26892-.75244,3.33057-1.11414,5.75116a40.67274,40.67274,0,0,0-.48407,5.11536l-2.39147,20.45c-.01166.13422-.47242,2.74731-.47834,2.87567-.26825,19.82581-.32074,36.65363-.11078,56.57282,0,.14587-.09338.65911-.09338.80493-.02911,1.70325-.28577,1.62738-.23914,2.69482.1167,2.70056-.32666,13.58466-.36163,16.29694-.39081,30.57007-2.39148,51.76666-.63574,82.92578,0,.0816-.30921,2.47308-.32086,2.55481a6.32409,6.32409,0,0,0-.11658,1.2832c-4.42139,152.60492-5.02789,310.97864-13.89978,463.54285l-1.97723,6.03119c-1.6391.73492-3.88471.13415-4.1355-2.09986-2.95728-26.18371-7.16284-58.64355-9.57178-84.45971-6.24121-66.93787-11.7182-133.95154-18.356-200.84857-3.558-35.83124-5.78619-71.92493-14.59955-107.05622-1.24829-4.98126-1.44659-11.92828-8.64434-11.94568-6.69611-.01165-8.02021,6.51532-9.78754,11.46741-8.04346,22.5556-11.374,46.21948-15.44537,69.656-7.9444,45.66534-13.75385,91.70416-24.01978,136.95538-1.744,7.6994-2.71808,15.91205-7.77515,22.68982a2.87667,2.87667,0,0,1-4.48541.14c-3.81476-4.60211-5.33124-9.735-6.97034-14.78625-6.23529-19.20178-12.04486-38.54938-18.78759-57.57031-2.93982-8.31183-5.46546-17.91272-15.57959-20.60163-7.46027-5.05133-13.81214.51911-18.82843,5.13873-8.02014,7.37854-13.93476,16.507-20.14673,25.35541-11.60156,16.51862-21.14411,34.94464-38.83508,44.91883-8.78431,4.95208-16.35535,6.22949-25.51874,6.41613-20.43256.42-38.88184-7.10443-57.83863-12.84979-26.73205-8.096-52.6065-19.43506-80.70336-22.42151-38.4328-4.08294-75.42469,3.66309-111.95,14.51221a234.26017,234.26017,0,0,0-24.20062,8.43426l-2.07642.63581c-13.73053,4.20544-26.61541,7.25024-39.611,13.82965-5.20874,2.63647-15.54443,2.66565-13.10626,10.49335,2.65387,8.51013,11.37982,3.43554,17.66766,1.93066a33.9399,33.9399,0,0,0,3.79718-1.429c27.11689-10.14917,54.53138-19.43512,82.54077-26.74951,43.26813-11.29822,86.30872-13.37469,129.40186,2.20484,20.78833,7.51269,41.47742,15.74871,63.21649,20.33331,51.90662,10.9483,66.54706,1.56323,94.19483-33.34644,9.53668-12.05066,16.89782-25.7229,27.05279-37.30694,9.23334-10.5166,15.52118-9.70587,20.8349,3.10309,5.88538,14.19134,10.31842,28.93676,14.5647,43.71728,2.99225,10.41742,5.68121,21.0741,12.19641,29.99835,7.11035,9.74085,13.818,9.62421,22.08325.06415.18665-.3208.37915-.6474.5658-.9624,1.66241-4.33966,4.03045-8.026,5.36621-12.91394.37329-1.35907,1.02081-2.62482,1.33575-3.98969,4.55542-22.18231,14.34882-43.34393,13.73639-66.2904.00574-.13416.01166-.26245.01752-.39081l.76984-6.04279c1.32409-9.286,3.09729-17.09613,3.66308-26.58038.0058-.08166.01746-.16913.02918-.25079,1.10821-6.282,1.66821-12.66895,3.1322-18.89264.01752-.11664.035-.23334.05249-.34412a168.84424,168.84424,0,0,1,4.85882-29.246c.01166-.05829.02332-.11078.035-.16913,1.11993-6.0545,2.03564-12.144,3.40637-18.15185.0058-.06415.01758-.1225.02924-.18665,1.63317-11.76489,3.56378-23.45392,7.45434-36.12286a2.87535,2.87535,0,0,1,5.53534.12249c2.85815,11.065,4.713,21.03327,5.20288,31.08326.21582,4.47967.95661,5.26709.95661,11.02411,0,6.2995.89245,12.04486,1.48742,17.83105.18085,2.02985,1.16657,3.98383,1.02075,6.03113-.43164,6.01373-.43164,13.9989,1.34156,20.63086,2.89886,10.8258,1.74987,22.11236,3.65136,33.37561a135.67628,135.67628,0,0,1,1.83155,18.62427c.12829,2.88732,1.23071,5.66375,1.18408,8.56848-.13422,8.85431,1.68567,15.842,2.3797,23.78051.68249,7.76355.68249,14.47138.92749,21.77411.09332,2.89307.7641,5.63453.93323,8.47516.1167,3.55219,1.27154,7.00525,1.18994,10.58075-.12836,5.59955-.12836,11.02991,1.2716,16.90363.34406,1.42907.01166,2.94555.19239,4.4096,2.85229,21.8324,4.82385,43.7406,5.63458,65.76551.00586.09332.01166.1983.01752.29748.16913,1.44074.71746,2.80554.78155,4.25794.28,6.31115,1.6507,12.44146,2.01233,18.706a34.01479,34.01479,0,0,0,1.03241,6.08362c1.95984,5.06879,1.13745,10.59253,2.67151,15.71954.5658,1.10248.47827,5.4596,1.0907,6.99945q.12258.3675.245.735c1.94819,12.60473.7641,9.21588,3.2547,21.77984.99158,5.00458,3.63391,16.647,9.34418,19.41175l1.53406-4.10633-1.53406,4.68958a5.78363,5.78363,0,0,0,2.63654.58917c6.67852-.08746,9.53082-8.376,10.66241-13.66058,2.23981-10.38245.99158-12.66309,2.79981-25.32038.9566-6.71362.659-9.83422.93908-14.3955,4.35132-70.31507,4.468-140.78766,8.07843-211.1377,1.80817-35.16046,1.71491-70.46673,2.0882-105.63305.93329-88.99769,3.11474-176.27466,2.15234-265.90821-.01166-1.28912,2.88147-44.88965,4.31635-36.26294-.175-1.044,5.15619,33.25318,5.27282,34.34973,5.273,49.04847.2334,99.8819,1.919,149.06452,2.77649,81.22827,3.34229,161.35431,5.11548,242.59424,1.05579,47.85864,5.58783,95.16308,5.58783,143.10333,0,5.43042,1.18408,10.62744.32086,17.2536-.08758.6416.30322,12.45313.31488,13.10059.64166,27.47857,2.479,43.60644,3.19647,70.61834,1.51661,56.95783,1.41736,113.5774,3.19641,169.9986.01166.23328,0,5.20288,0,5.43622.02332,5.90283.04664,11.08825.23328,16.28534.18671,5.37207.56,10.76159,1.28912,16.96777.00574.29749.00574.60657.01166.91577-.18664,1.30652-.01166,5.35456-.18664,6.70777l-.07007,1.31823v3.1789c.02331.6416-.37329,5.42456-.31494,6.072.6358,7.66443.95654,3.30145.95654,7.98523,0,13.42138,2.36823,23.56476,2.65985,36.13452.0058,8.6618.97992,17.20691,1.0965,25.93872.07586,5.59369,1.5166,11.584,1.7558,16.61194.13995,7.73443-.12836,6.43371.7174,14.14471a14.42174,14.42174,0,0,0,3.75049,7.33771,3.02445,3.02445,0,0,0,2.63654.98578c6.01361-.81659,7.51263-.86328,9.43164-5.20874.29168-6.387.79327-8.33515.92749-8.77265.27411-.30914.5133-1.07318.5133-2.85223.09912-9.175,1.674-14.49463,2.30976-24.57965.54828-8.80176,1.085-17.44025.97992-26.18372a88.84622,88.84622,0,0,0-.01166-9.735c-.69989-10.80823.30908-20.80579,1.02655-31.55573.15167-2.234.24506-5.92621.24506-8.16595-.01166-40.36341,1.37646-74.0365,1.6798-114.15485.22168-29.6134,1.04407-60.81921,1.59821-90.43262-.5658-155.67889-7.536-310.40124-4.63708-466.05676.035-1.79071-.08173-11.1933.32074-12.93732a4.14048,4.14048,0,0,1,2.71813-2.71814c.68824-1.89563,5.75123,1.27741,5.5879,5.59375-.02918.95661,1.11407,5.41285,1.11993,6.06611,1.254,2.86981.46075,6.02539,1.44067,8.94769.18085.75818-.02331,5.15619.15747,5.91449,2.18152,30.68664.06415,57.91443,1.97156,88.61853,6.22943,100.54681-3.21393,205.36908,25.43128,301.9436a35.43564,35.43564,0,0,0,2.374,6.41614c2.09979,6.57947,5.72778,11.57825,11.899,12.03906,0,0,4.048-.54248,8.24761-4.818V686.386q0,25.7578.29749,47.71271.28876,21.96945,2.11737,38.13519,1.81971,16.18615,5.69873,25.36127,3.88467,9.178,10.94238,9.17505,4.81211,0,8.58014-4.84705a42.53819,42.53819,0,0,0,6.41034-13.28729,111.21815,111.21815,0,0,0,3.99549-19.90168,209.14825,209.14825,0,0,0,1.35321-24.428,294.45587,294.45587,0,0,0-1.58661-29.78833,310.09582,310.09582,0,0,0-4.707-30.82086,252.46922,252.46922,0,0,0-7.816-29.3742,154.44646,154.44646,0,0,0-11.05329-25.67041,112.8122,112.8122,0,0,0,17.51612-17.73188,144.33,144.33,0,0,0,13.35131-20.09417A158.43831,158.43831,0,0,0,900.058,569.583c1.77319-4.76544,3.249-9.40253,4.60217-13.96381a10.90534,10.90534,0,0,0,1.6507-4.18219,28.68044,28.68044,0,0,0,.58911-2.91644q.4812-2.651,1.13745-6.90027.65616-4.24338,1.37067-9.93335.71741-5.69577,1.18994-12.2373a39.65917,39.65917,0,0,1,4.24627-.245h3.63392q3.46463,0,4.47375,2.304a17.94459,17.94459,0,0,1,1.02081,6.91192q0,10.89286-1.19574,22.894-1.19,11.98653-1.18988,24.10138a113.87773,113.87773,0,0,0,1.66815,20.47912,66.36357,66.36357,0,0,0,4.47382,15.25879,26.76881,26.76881,0,0,0,6.6319,9.455,12.26155,12.26155,0,0,0,8.11352,3.27221q6.91187,0,12.70984-7.51269a84.22244,84.22244,0,0,0,10.44074-18.42017c2.34485-5.4887,4.42718-11.36822,6.387-17.446a119.36881,119.36881,0,0,0,4.678,19.14923,53.981,53.981,0,0,0,9.6709,17.63275q5.8795,6.80694,13.95221,6.8186,12.59893-.54244,22.579-21.10913a104.979,104.979,0,0,0,7.48358-19.6217,115.01332,115.01332,0,0,0,4.15881,16.27948,53.86624,53.86624,0,0,0,9.665,17.63275q5.87952,6.80694,13.95215,6.8186c10.68585,0,21.82074-19.7384,22.579-21.10913.0816-.14581.15741-.35.23328-.50158a48.19521,48.19521,0,0,0,4.25213,11.934,18.81933,18.81933,0,0,0,6.66113,7.40771,15.38266,15.38266,0,0,0,7.886,2.234q7.75177,0,14.41882-10.81988,6.65809-10.82292,13.188-34.80469,4.751,25.17169,11.28669,36.09955,6.52687,10.9366,15.64367,10.93664,4.89084,0,9.30927-4.11218a50.97432,50.97432,0,0,0,8.37011-10.46417c.99158-1.59821,1.91321-3.34223,2.84064-5.0979.54822,1.87817,1.10236,3.75048,1.76734,5.4129a28.1316,28.1316,0,0,0,6.23529,9.93335,11.54776,11.54776,0,0,0,8.19519,3.52887q5.73952,0,11.48492-8.75513,5.74823-8.758,9.90418-23.66388,2.20476,14.64624,7.03436,24.31714,4.81219,9.66805,11.91656,9.6709,5.01326,0,9.52509-5.0979c3.02722-3.40058,3.1264-2.689,5.73364-7.91516.68244-1.38239,7.04614-15.03131,7.6994-16.47785l13.66053-46.99536c4.31634-11.89319,8.35266-17.04938,11.135-26.57446,4.30456-14.76294,8.80755-29.48511,14.75122-43.65308,5.36621-12.78558,11.654-13.57306,20.84668-3.00976,10.10833,11.62488,17.40515,25.33209,26.8952,37.42358,21.66907,27.60693,37.51111,40.74835,68.6936,39.82678v.02912c9.82837.50744,19.82-.15747,30.045-.19831,27.9394-.11084,55.76795-2.36816,83.70154-1.534a44.14413,44.14413,0,0,0,5.89112-.21582c33.82483-3.4881,67.62609-3.12641,101.43328-4.70716,23.45405-1.09655,43.55988-1.88983,67.002-2.27478,1.60419-.02331,5.75134-.32666,7.37866-.34411,17.39356-.15168,32.84485.67071,51.46326-1.37073,1.17236-.12836,5.16784.01746,6.34625,0,14.098-.19257,24.8186-1.8374,38.0127-3.19647.12243-.02912,1.44055-.2508,1.55737-.28a52.76547,52.76547,0,0,0,6.241-.35577ZM851.8372,512.02752q-.0032-4.73749-.0534-9.46759-.08808-.98566-.1966-1.96985a1.14439,1.14439,0,0,1,.1698-.74408q-.18667-15.97924-.83892-31.947c-.29731-7.197.86212-14.30975.91912-21.49628.03357-4.233.11371-8.45172.3407-12.66424-.10559-1.9245-.22857-3.84735-.41272-5.76191-.2193-2.28015-1.05163-4.82678.283-6.80639a135.06215,135.06215,0,0,1,1.90955-22.49451,2.63254,2.63254,0,0,1,.151-.5675c.20215-2.72882.44189-5.41883.52142-7.96961.29627-9.50519.752-19.21893,1.76953-28.67322a2.63432,2.63432,0,0,1,.28418-.9179c.0019-.03778-.00763-.07569-.00293-.11335.82868-6.6466.58417-13.364,1.19324-20.03167.24616-2.69458.5799-5.59442,2.01148-7.86151.379-1.16712.80957-2.32776,1.26544-3.50293.96026-2.47553,1.9386-5.03485,4.4555-6.2937a2.7782,2.7782,0,0,1,.40631-.15546,1.95664,1.95664,0,0,1,2.49231.06171c3.58179,2.67944,5.10633,6.57257,5.63324,10.94982a163.38837,163.38837,0,0,1,1.04242,20.64631,2.56519,2.56519,0,0,1-.12536.78564,12.72627,12.72627,0,0,1,.30975,3.20941,33.8293,33.8293,0,0,1-.07971,7.26093c-.275,4.20575.24682,8.40106-.09632,12.60766a131.68023,131.68023,0,0,1-.77581,21.4278c-.53345,5.2453-1.19086,10.40063-1.372,15.6756-.16986,4.94586-1.451,9.71936-1.65735,14.64215-.00305.07324-.02673.13183-.03479.2016a56.29022,56.29022,0,0,1-.92365,8.91113,166.23519,166.23519,0,0,1-3.96008,19.751c-1.91876,6.84808-3.10358,14.1344-4.35828,21.13671-.05633.31421-.13531.6225-.20178.934a15.13887,15.13887,0,0,1-.08618,1.74523,49.93509,49.93509,0,0,1-2.36468,9.78382c-.77894,2.3728-1.6457,4.71527-2.50446,7.05945-.04742.3128-.0838.62536-.13977.93841a2.05722,2.05722,0,0,1-.62677,1.17468q-.14475.40192-.28809.80426a1.40186,1.40186,0,0,1-.22833.65662q-.37775,1.07676-.736,2.15973c.00805.24268.02917.4845.031.7276a1.33505,1.33505,0,0,1-.65454,1.2146c-.49469,1.61957-.93933,3.25537-1.30084,4.91827a.42452.42452,0,0,1-.25195.31873A.503.503,0,0,1,851.8372,512.02752ZM859.52245,656.41a14.28967,14.28967,0,0,1,.17273,1.99755c1.24212,4.14045,2.87127,8.16382,4.375,12.22754a150.55792,150.55792,0,0,1,5.11462,17.81488,141.26047,141.26047,0,0,1,3.03986,19.91639c.60882,6.76257,2.09881,13.40167,2.83251,20.14825,1.47687,13.58026.455,28.608-1.51763,42.10681-1.14679,7.8476-2.01087,20.98328-12.38984,20.74933a2.51393,2.51393,0,0,1-2.4107-1.83539c-.00507-.03345-.00916-.067-.01422-.10046a3.1502,3.1502,0,0,1-.267-.462,35.70939,35.70939,0,0,1-2.259-11.33551c-2.18158-4.30469-1.95435-10.92718-1.69489-14.93408.04285-.66132.11292-1.32037.1687-1.98059-.26733-2.032-.53393-4.0669-.75714-6.11688-.38714-3.55555-1.063-9.64563.01013-14.5597q-.48843-9.63162-.71917-19.30511-.43049-18.03469-.46009-36.076c-.02063-11.66724-.81781-23.35925-.00287-35.01269a2.79946,2.79946,0,0,1,.08722-.51355c.01209-.11622.02045-.23066.03565-.34876.003-.023.00244-.04584.00525-.06885.04577-1.707.07727-3.41345.04376-5.11572a.69365.69365,0,0,1,1.1427-.32269c.77,1.43921,1.7146,2.82544,2.55127,4.25659a2.05754,2.05754,0,0,1,1.13415,2.113c-.00146.02087-.002.04174-.00335.06268a11.84527,11.84527,0,0,1,.76312,2.31311C858.81255,653.48827,859.26976,654.94122,859.52245,656.41Zm42.80291-158.73786a.3651.3651,0,0,1-.04937.21893c-.01593.1233-.0199.24817-.03876.371-.00159.01037-.01111.01715-.01361.02722a.2155.2155,0,0,1,.01074.23382.45991.45991,0,0,1,.10834.44208v.31122a.4376.4376,0,0,1,.053.259l-.07032.73828a.50959.50959,0,0,1-.5.5c-1.45977-.12164-2.899.02069-4.35162-.19366a.5041.5041,0,0,1-.29883-.7345l.14752-.36279a.36287.36287,0,0,1-.04-.19342,7.11626,7.11626,0,0,1,.4259-1.9054,31.85325,31.85325,0,0,1,1.07892-6.289,26.66332,26.66332,0,0,1,1.12805-4.29016c.10107-.46478.20886-.92718.30292-1.39441a.40882.40882,0,0,1,.19085-.27734c-.00042-.02741.00287-.05451.0022-.082a.50031.50031,0,0,1,1,0c.00226.09643-.01062.19153-.01074.28778a.49871.49871,0,0,1,.11621.27472c.00519.07312.01434.14752.02.22076a.4773.4773,0,0,1,.05029.1308c.04578.68988,1.05194,4.63568.70154,6.68823a24.82838,24.82838,0,0,1,.02252,4.90192Zm78.46881,70.36005c-.49914,1.07293-1.97406.29724-1.79345-.73535a.981.981,0,0,1-.35126-.70685c-.35352-5.15473-1.7793-11.72284-.29578-16.98718.00666-.07563.00251-.15278.01062-.22821a2.15334,2.15334,0,0,1-.08984-.59711c.01141-4.07868.059-8.16351.34094-12.23413a17.70362,17.70362,0,0,1,.58008-4.95258,53.68337,53.68337,0,0,1,2.53156-16.07934c.94818-3.246,1.95037-9.0708,4.91058-11.17377a6.40512,6.40512,0,0,1,8.86682,1.32251c2.15741,3.12079,1.601,7.77612,1.55121,11.33612a41.08508,41.08508,0,0,1-.33527,5.45093,2.79053,2.79053,0,0,1-.03528.46368c.051-.28979-.00817.68262-.006.8169.00665.41125.03449.82183.054,1.23254a18.73579,18.73579,0,0,1,.00921,2.54883,9.1099,9.1099,0,0,1-.22729,1.37494c-.364,2.92682-1.25788,5.95367-1.68421,8.46423a33.57831,33.57831,0,0,1-1.21191,6.17194,23.89126,23.89126,0,0,1-2.00641,6.44726.83993.83993,0,0,1-.13074.53345c-.46643.71124-.902,1.47583-1.32385,2.26788-.91815,5.65253-5.884,11.47461-9.264,15.01416C980.8596,567.865,980.83092,567.95318,980.79417,568.03216Zm56.90027-1.187a1.00525,1.00525,0,0,1-1.2301-.69843c-1.132-5.26959-.89789-11.38318-.909-16.80176-.05395-1.06628-.09942-2.13336-.12133-3.20245-.04474-2.18494.02575-4.339.15515-6.48114a29.87007,29.87007,0,0,1,.1651-3.647c.04113-.73053.09778-1.45532.14874-2.18213a19.37035,19.37035,0,0,1,.15173-2.07642c.29523-3.59692.6911-7.16766,1.14148-10.77527a1.38012,1.38012,0,0,1,.25238-.63458c.67487-4.7832,1.98432-9.81586,4.71753-13.54693,2.21662-3.02594,6.87775-5.15815,9.97882-2.04725a6.84154,6.84154,0,0,1,1.64691,3.23694,1.00714,1.00714,0,0,1,.16993.47626c.022.26129.04174.52649.06323.78894a15.32136,15.32136,0,0,1,.1366,1.71722c.024.32081.04382.64441.06628.96644a.89993.89993,0,0,1,.22607.60546c-.00067,1.81916.05817,3.73627.07135,5.6828a60.46516,60.46516,0,0,1-.84552,12.04523c-.0299,1.59009-.149,3.22516-.83886,4.15167a1.61712,1.61712,0,0,1-.23566.23761,82.93439,82.93439,0,0,1-3.07782,12.50116c-.52026,3.12494-2.18756,6.11567-3.55078,8.94068C1044.38927,559.39178,1041.35417,565.51134,1037.69444,566.84521Zm91.84534-53.88019c-.0705.62939-1.05768.64557-1,0,.07056-.78992.16937-1.57361.28491-2.35376.1853-3.19739.00659-6.40033.15515-9.596a2.11835,2.11835,0,0,1-.11194-.70642c.06452-4.92755.498-9.838.5625-14.76562a2.04,2.04,0,0,1,.17945-.82807c-.43073-10.10034-1.9798-21.28174.344-31.17236.01532-1.33631.08673-2.66638.11994-3.93549.10223-3.90625.09619-7.83392.29406-11.73584a35.70982,35.70982,0,0,1,.40406-3.628c-.98511-5.43964-.17041-11.70612-.09131-16.67816.11713-7.36249.06494-14.95844,1.28454-22.28082-.04284-2.415-.06463-4.82685.12769-7.21173q.82059-10.17674,1.38416-20.362a167.4616,167.4616,0,0,1,1.91839-19.79328q.16387-.94043.35565-1.88159a105.83583,105.83583,0,0,1,3.23291-18.47772c1.14643-4.43048,6.343-4.36743,8.67878-1.72516.02032.02185.04083.0434.06073.06567.0216.02539.04187.05176.06292.07758a4.15907,4.15907,0,0,1,.83753,1.57641,4.58732,4.58732,0,0,1,.17669,1.23493c.00354.12579.00953.24994.0047.381-.008.217-.03088.43231-.04248.64893a5.46262,5.46262,0,0,1,.42639,1.1156,46.15241,46.15241,0,0,1,1.27106,6.81677c1.24518,3.02,1.31317,6.16052,1.29816,9.41864a4.8786,4.8786,0,0,0,.14062,2.25c.08454,14.13232.47376,28.26569-.58355,42.36688a78.3331,78.3331,0,0,1-.85755,8.99658c.01111.08234.027.16126.03485.24579.48005,5.206-1.16021,10.61145-1.693,15.79065-.53839,5.23322-1.032,10.45533-1.82983,15.65839-1.06079,6.91858-1.90729,14.37067-3.70826,21.36609-.48138,2.4292-1.07318,4.83581-1.5578,7.26263a.45076.45076,0,0,1,.21082.39087c.05249,5.81275-1.55438,11.71161-2.57758,17.40814-.53167,2.96021-1.17279,5.898-1.82061,8.834-.48334,2.19043-.82038,4.40924-1.99823,6.35388a.45788.45788,0,0,1-.46808.22839c-.74231,2.37183-1.30756,4.796-2.04706,7.17621C1131.81651,505.3167,1129.98973,508.94946,1129.53978,512.965Z" transform="translate(-109.24058 -36.5285)"/><path class="cls-2" d="M1140.67356,324.43848c1.7439-3.01774,5.03213-2.407,6.587.42516" transform="translate(-109.24058 -36.5285)"/></svg>