<svg id="Layer_1" data-name="Layer 1" xmlns="http://www.w3.org/2000/svg" xmlns:xlink="http://www.w3.org/1999/xlink" viewBox="0 0 291.47 174.74"><defs><style>.cls-1{fill:none;}.cls-2{clip-path:url(#clip-path);}.cls-3{fill:#9a2f49;}.cls-4{fill:#fff;}</style><clipPath id="clip-path" transform="translate(-11.6 -8.19)"><rect class="cls-1" width="311.29" height="190.59"/></clipPath></defs><title>Freeda</title><g class="cls-2"><path class="cls-3" d="M302.88,92.84a2.27,2.27,0,0,1-1,0c-5.17-.07-10.23.23-15.3.44-5.29.22-10.59.06-16,.25-5.24.17-10.23.72-15.36.59a5,5,0,0,1-1.5,0c-.06,0-1.09,0-1.15,0-2.4,0-3.81.34-6.17.4-3.92.11-7.8,0-11.68.1h0c-.46,0-1-.13-1.46-.14a8.29,8.29,0,0,1-4.2-1.37c-3-1.72-4.64-4.89-6.62-7.73a25.89,25.89,0,0,0-3.44-4.36c-.85-.79-1.94-1.75-3.22-.89-1.74.45-2.18,2.09-2.69,3.52-1.17,3.25-2.92,7-4,10.24-.25.76-.28.85-.46,1.54l-2.35,7.79a19.79,19.79,0,0,1-1.09,1.94c-.33.39-.75.76-1.09.76-.52,0-.92-.4-1.22-1.15a12.4,12.4,0,0,1-.66-2.64c-.14-1-.24-2-.28-3.08s-.07-1.83-.08-2.4a3.28,3.28,0,0,0-.24-1.12c-.15-.33-.32-.49-.52-.49s-.39.14-.54.43a2.46,2.46,0,0,0-.27,1,27.4,27.4,0,0,1-.52,4,17.54,17.54,0,0,1-.81,2.82,5.72,5.72,0,0,1-1,1.66,1.33,1.33,0,0,1-.87.54,1.09,1.09,0,0,1-.88-.45,3.54,3.54,0,0,1-.56-1.17,9,9,0,0,1-.3-1.59c-.05-.58-.08-1.16-.08-1.73a23.15,23.15,0,0,1,.41-4.72,15.48,15.48,0,0,1,1-3.32,5.62,5.62,0,0,1,1.35-2,2.17,2.17,0,0,1,1.38-.63,1.56,1.56,0,0,1,.78.2,2.61,2.61,0,0,1,.6.47,2.9,2.9,0,0,1,.4.52c.1.16.16.27.19.33.15.33.34.5.56.5s.4-.18.55-.52a2.94,2.94,0,0,0,.23-1.19,3.33,3.33,0,0,0-.23-1.21s-.09-.17-.23-.42a4.72,4.72,0,0,0-.6-.83,5,5,0,0,0-.93-.83,2,2,0,0,0-1.2-.38,3.15,3.15,0,0,0-2,.89,8.25,8.25,0,0,0-1.89,2.69,19.53,19.53,0,0,0-1.42,4.46,30.6,30.6,0,0,0-.55,6.17c0,.45,0,.88,0,1.3l-.06.2a14.13,14.13,0,0,1-1.44,2.62,2.1,2.1,0,0,1-1.61,1.07q-2.16,0-3.31-9.32.63-2.62,1.4-6.25t1.46-7.9q.69-4.27,1.15-8.95t.47-9.36c0-1.45-.06-2.78-.16-4a18.7,18.7,0,0,0-.51-3.1,5.78,5.78,0,0,0-.87-2,1.6,1.6,0,0,0-1.31-.73,1.89,1.89,0,0,0-1.53,1,9.84,9.84,0,0,0-1.18,2.81,31.7,31.7,0,0,0-.85,4.11c-.24,1.56-.42,3.2-.56,4.94s-.24,3.51-.31,5.32-.09,3.56-.09,5.22q0,5.73.33,10.36c.21,3.1.46,5.82.72,8.19-.47,2-.89,3.64-1.27,4.88a22.26,22.26,0,0,1-1.05,2.86,4.07,4.07,0,0,1-.9,1.35,1.28,1.28,0,0,1-.79.35c-.61,0-1.07-.38-1.39-1.13a8.33,8.33,0,0,1-.48-3.15,17.9,17.9,0,0,1,.44-4.23,11,11,0,0,1,1.09-2.93,5.8,5.8,0,0,1,1.46-1.75,4.09,4.09,0,0,1,1.49-.77.86.86,0,0,0,.56-.52,2.34,2.34,0,0,0,.21-1,2.17,2.17,0,0,0-.25-1.07.75.75,0,0,0-.61-.42,3.35,3.35,0,0,0-2.16.93,8.65,8.65,0,0,0-2,2.6,16.85,16.85,0,0,0-1.44,4,21.33,21.33,0,0,0-.55,4.61c-.06.16-.11.31-.18.48a11.51,11.51,0,0,1-1.53,2.82,2.39,2.39,0,0,1-1.87,1.07,2.14,2.14,0,0,1-1.7-.8,6.1,6.1,0,0,1-1.13-2.13,12.67,12.67,0,0,0,1.53-2.06,14.59,14.59,0,0,0,1.23-2.61,19.37,19.37,0,0,0,.81-3.07,20.76,20.76,0,0,0,.29-3.53,13.55,13.55,0,0,0-.23-2.61,9.17,9.17,0,0,0-.61-1.95,4,4,0,0,0-.85-1.24,1.39,1.39,0,0,0-.95-.43,1.91,1.91,0,0,0-1.5.83A7,7,0,0,0,170,88.12a18.21,18.21,0,0,0-.75,3.44,31.82,31.82,0,0,0-.27,4.31c0,.55,0,1.1.06,1.65l0,.13a29.41,29.41,0,0,1-1.24,3.9,11.51,11.51,0,0,1-1.53,2.82,2.38,2.38,0,0,1-1.86,1.07,2.13,2.13,0,0,1-1.7-.8,6.11,6.11,0,0,1-1.14-2.13,11.61,11.61,0,0,0,1.53-2.06,14.59,14.59,0,0,0,1.23-2.61,19.37,19.37,0,0,0,.81-3.07,19.79,19.79,0,0,0,.29-3.53,12.8,12.8,0,0,0-.23-2.61,8.15,8.15,0,0,0-.61-1.95,4,4,0,0,0-.85-1.24,1.39,1.39,0,0,0-1-.43,1.91,1.91,0,0,0-1.5.83,7.21,7.21,0,0,0-1.18,2.28,19,19,0,0,0-.75,3.44,31.9,31.9,0,0,0-.26,4.31c0,.29,0,.58,0,.87-.1.47-.21,1-.37,1.55a35.25,35.25,0,0,1-1.18,3.47,14.87,14.87,0,0,1-1.43,2.8,2.12,2.12,0,0,1-1.66,1.17,1.19,1.19,0,0,1-.63-.23,2,2,0,0,1-.66-.81,6.47,6.47,0,0,1-.51-1.56,12,12,0,0,1-.21-2.47c0-.69,0-1.4.07-2.12s.08-1.44.14-2.18.1-1.45.14-2.14.06-1.35.06-2a7.06,7.06,0,0,0-.61-3.41,2,2,0,0,0-1.78-1l-.65,0-.68,0c0-.56,0-1.21-.07-2s-.13-1.46-.24-2.14a7.61,7.61,0,0,0-.46-1.72c-.2-.47-.45-.71-.77-.71s-.54.29-.81.86a11.85,11.85,0,0,0-.74,2,20.36,20.36,0,0,0-.52,2.37,12.74,12.74,0,0,0-.2,1.91,4.21,4.21,0,0,0,.21,1.49,1.7,1.7,0,0,0,.52.79,1.24,1.24,0,0,0,.68.29,6.09,6.09,0,0,0,.72,0c-.12,1.21-.22,2.11-.31,2.7s-.15,1-.2,1.24c0,.08,0,.13,0,.19-.27,1-.63,2-1,3.07a26.15,26.15,0,0,1-1.63,3.43,25.43,25.43,0,0,1-2.18,3.2,16.74,16.74,0,0,1-2.71,2.68c0-.75,0-1.64,0-2.66s0-2.1,0-3.22V95.21q1.11-3.49,2.08-7.1c.66-2.4,1.22-4.87,1.71-7.39s.86-5.12,1.15-7.81a80.41,80.41,0,0,0,.42-8.34c0-1.37,0-2.67-.16-3.92a19.26,19.26,0,0,0-.53-3.27,6.83,6.83,0,0,0-.94-2.23,1.73,1.73,0,0,0-1.44-.83c-.71,0-1.3.57-1.76,1.71a21,21,0,0,0-1.1,5q-.41,3.28-.58,8.05T138,79.94q0,3.18-.06,6.74t0,7.23c0,.73,0,1.45,0,2.18h0l0,.8c0,1.45,0,2.9,0,4.35q0,3.66,0,7c0,2.14,0,4.15,0,6l-.08,1.42s-.78,7.06-2.54-.67l-.51-2.57c-.05-1-.1-1.76-.11-2-.08-.62-.15-1.73-.16-2.47-.09-4.42-.87-8.79-1.13-13.19q-.8-13.44-1.65-26.87c-.51-8.11-.83-14.29-1.72-22.38-.07-.69-.11-.48-.41-1.12s-.27-.6-1.18-1c-.65-.3-.93,0-1.34.35-.94.82-.89,1-.87,2.22.07,5.12-.57,9.4-.64,14.51-.29,18.66,1.22,37.55.44,56.22-.39,9.59,0,18.77.11,28.38.13,6.13.09,22.45.09,28.55,0-.67-.25,8.11-1.32,5.44,0-.1-.42-17.17-.41-17.28s-.11-.53-.11-.66c0-1.28-.06-1.62,0-2.25,0-.21,0-.45,0-.76v-.66c0-.4,0-.65,0-1,0-.56.09-1.36,0-1.92-.33-5.34.11-10.82,0-16.49-.14-9.29-.63-18.53-.62-27.82,0-.78,0-1.55-.06-2.32-.74-11.36-.82-22.74-1.23-34.11-.29-7.89-.72-15.3-.89-23.19,0-.54,0-1.18,0-1.72-.43-6-.22-12.45-.65-18.46.16-4.69-.11-9.23-.41-13.86,0,0,0-.49-.06-.52a13.82,13.82,0,0,0-.36-3.59,27.31,27.31,0,0,0-.57-2.8c-.11-.35-.13-.56-.22-.93-.16-.63-.35-.49-1.21-.52-1.26,0-1,.57-1.2,1.1a3.28,3.28,0,0,0-.19,1,4.91,4.91,0,0,0-.08.88l-.41,3.51s-.09.47-.09.49c0,3.4,0,6.28,0,9.7,0,0,0,.11,0,.14,0,.29,0,.28,0,.46,0,.46-.06,2.33-.06,2.79-.07,5.24-.41,8.88-.11,14.22,0,0-.06.42-.06.44a1.8,1.8,0,0,0,0,.22c-.76,26.16-.86,53.31-2.38,79.47l-.34,1a.48.48,0,0,1-.71-.36c-.51-4.49-1.23-10.05-1.64-14.48-1.07-11.47-2-23-3.15-34.43-.61-6.14-1-12.33-2.5-18.36-.21-.85-.25-2-1.48-2s-1.38,1.11-1.68,2a72,72,0,0,0-2.65,11.94c-1.36,7.83-2.36,15.73-4.12,23.48a9.64,9.64,0,0,1-1.33,3.89.49.49,0,0,1-.77,0,7.17,7.17,0,0,1-1.19-2.54c-1.07-3.29-2.07-6.61-3.22-9.87-.51-1.42-.94-3.07-2.68-3.53-1.27-.86-2.36.09-3.22.88a25.93,25.93,0,0,0-3.46,4.35c-2,2.83-3.62,6-6.66,7.7a8.48,8.48,0,0,1-4.37,1.1c-3.5.07-6.67-1.22-9.92-2.2-4.58-1.39-9-3.33-13.83-3.85-6.59-.7-12.93.63-19.2,2.49a38.94,38.94,0,0,0-4.14,1.45l-.36.11a40.49,40.49,0,0,0-6.79,2.37c-.89.45-2.67.45-2.25,1.8s1.95.59,3,.33c.22-.06.43-.17.65-.25A144,144,0,0,1,29.49,91c7.42-1.94,14.8-2.3,22.19.37a82,82,0,0,0,10.84,3.49c8.89,1.88,11.4.27,16.14-5.72,1.64-2.06,2.9-4.41,4.64-6.39,1.59-1.81,2.66-1.67,3.57.53a70,70,0,0,1,2.5,7.49,15.87,15.87,0,0,0,2.09,5.15c1.22,1.67,2.37,1.65,3.79,0l.1-.17a22.58,22.58,0,0,0,.92-2.21c.06-.23.17-.45.22-.68.79-3.81,2.46-7.44,2.36-11.37v-.07l.13-1c.23-1.59.54-2.93.63-4.56v0c.19-1.08.28-2.17.53-3.24v-.06a28.19,28.19,0,0,1,.84-5v0c.19-1,.35-2.09.59-3.12v0a38.14,38.14,0,0,1,1.28-6.19.49.49,0,0,1,.95,0,26,26,0,0,1,.89,5.33c0,.77.16.9.16,1.89a29.55,29.55,0,0,0,.26,3.06,6,6,0,0,1,.17,1,11.64,11.64,0,0,0,.23,3.54c.5,1.85.3,3.79.63,5.72a21.78,21.78,0,0,1,.31,3.19c0,.5.22,1,.21,1.47a33.93,33.93,0,0,0,.41,4.08c.11,1.33.11,2.48.15,3.73,0,.5.14,1,.16,1.45s.22,1.21.21,1.82a11.08,11.08,0,0,0,.22,2.9,6.19,6.19,0,0,1,0,.75c.49,3.75.83,7.5,1,11.28v0c0,.25.12.48.13.73.05,1.08.29,2.13.35,3.21a6.1,6.1,0,0,0,.17,1c.34.87.2,1.81.46,2.69.1.19.08.94.19,1.2l0,.13c.34,2.16.13,1.58.56,3.73.17.86.62,2.86,1.6,3.33l.26-.7-.26.8a.87.87,0,0,0,.45.1c1.15,0,1.64-1.43,1.83-2.34.39-1.78.17-2.17.48-4.34a21.05,21.05,0,0,0,.16-2.47c.75-12,.77-24.14,1.39-36.2.31-6,.29-12.08.36-18.11.16-15.25.53-30.22.36-45.58,0-.23.5-7.7.74-6.22,0-.18.89,5.7.91,5.89.9,8.41,0,17.12.33,25.55.47,13.93.57,27.67.87,41.59.19,8.21,1,16.32,1,24.54a18.92,18.92,0,0,1,.06,3c0,.11,0,2.13,0,2.24.11,4.71.43,7.48.55,12.11.26,9.76.24,19.47.55,29.14v.94c0,1,0,1.9,0,2.79s.09,1.84.22,2.91v.15c0,.23,0,.92,0,1.15v.78c0,.11-.07.93-.06,1,.11,1.31.17.56.17,1.37,0,2.3.4,4,.45,6.19,0,1.49.17,2.95.19,4.45,0,1,.26,2,.3,2.85a17.83,17.83,0,0,0,.12,2.42,2.47,2.47,0,0,0,.65,1.26.51.51,0,0,0,.45.17c1-.14,1.29-.15,1.62-.9a6.55,6.55,0,0,1,.16-1.5.89.89,0,0,0,.08-.49c0-1.57.29-2.48.4-4.21.09-1.51.19-3,.17-4.49a15.51,15.51,0,0,0,0-1.67,40.7,40.7,0,0,1,.17-5.41c0-.38,0-1,0-1.4,0-6.92.24-12.69.29-19.57,0-5.08.18-10.43.28-15.51-.1-26.69-1.3-53.21-.8-79.9,0-.3,0-1.92.06-2.22a.69.69,0,0,1,.46-.46c.12-.33,1,.22,1,1,0,.16.19.93.19,1,.22.49.08,1,.25,1.53,0,.13,0,.89,0,1,.37,5.26,0,9.92.33,15.19,1.07,17.24-.55,35.21,4.36,51.76a6,6,0,0,0,.41,1.1c.36,1.13,1,2,2,2.07a2.67,2.67,0,0,0,1.41-.83v.56c0,3,0,5.67.06,8.18s.15,4.69.36,6.54a16,16,0,0,0,1,4.35c.44,1.05,1.06,1.57,1.87,1.57a1.83,1.83,0,0,0,1.47-.83,7.12,7.12,0,0,0,1.1-2.28,19.47,19.47,0,0,0,.69-3.41,36.76,36.76,0,0,0,.23-4.19,50.61,50.61,0,0,0-.27-5.1,52.35,52.35,0,0,0-.81-5.29,43.58,43.58,0,0,0-1.34-5,26.24,26.24,0,0,0-1.9-4.41,19.22,19.22,0,0,0,3-3,25.38,25.38,0,0,0,2.29-3.44,27.59,27.59,0,0,0,1.66-3.64c.3-.82.56-1.61.79-2.4a1.9,1.9,0,0,0,.28-.71s.05-.2.1-.5.12-.7.2-1.19.15-1,.23-1.7.15-1.35.21-2.1a6.24,6.24,0,0,1,.72,0h.63a.73.73,0,0,1,.76.4,2.94,2.94,0,0,1,.18,1.18,38.86,38.86,0,0,1-.21,3.93c-.13,1.37-.2,2.74-.2,4.13a18.72,18.72,0,0,0,.29,3.51,11.17,11.17,0,0,0,.76,2.61,4.62,4.62,0,0,0,1.14,1.63,2.11,2.11,0,0,0,1.39.56,2.78,2.78,0,0,0,2.18-1.29,14.41,14.41,0,0,0,1.79-3.16c.4-.94.76-2,1.09-3a20.43,20.43,0,0,0,.81,3.28,9.26,9.26,0,0,0,1.65,3,3.1,3.1,0,0,0,2.4,1.16q2.16-.09,3.87-3.61a18,18,0,0,0,1.28-3.37,20.26,20.26,0,0,0,.71,2.79,9.45,9.45,0,0,0,1.66,3,3.08,3.08,0,0,0,2.39,1.16c1.83,0,3.74-3.38,3.87-3.61a.36.36,0,0,0,0-.09,9,9,0,0,0,.73,2,3.33,3.33,0,0,0,1.14,1.27,2.72,2.72,0,0,0,1.36.38c.88,0,1.71-.62,2.47-1.86a24.29,24.29,0,0,0,2.26-6,20.34,20.34,0,0,0,1.93,6.19,3.19,3.19,0,0,0,2.69,1.87,2.29,2.29,0,0,0,1.59-.7,8.74,8.74,0,0,0,1.44-1.8c.17-.27.33-.57.48-.87.1.32.19.64.31.93a4.73,4.73,0,0,0,1.07,1.7,2,2,0,0,0,1.4.6c.66,0,1.31-.5,2-1.5a14.66,14.66,0,0,0,1.7-4,14,14,0,0,0,1.2,4.16c.55,1.11,1.24,1.66,2,1.66a2.21,2.21,0,0,0,1.63-.87,3.73,3.73,0,0,0,1-1.36c.12-.24,1.21-2.58,1.32-2.82l2.35-8.06c.74-2,1.43-2.92,1.9-4.56a70,70,0,0,1,2.53-7.48c.92-2.19,2-2.33,3.58-.52,1.73,2,3,4.35,4.61,6.42,3.71,4.73,6.43,7,11.78,6.83h0c1.68.09,3.39,0,5.15,0,4.79,0,9.56-.41,14.35-.26a8.61,8.61,0,0,0,1,0c5.8-.6,11.59-.54,17.39-.81,4-.19,7.46-.32,11.48-.39.28,0,1,0,1.27-.06a80,80,0,0,0,8.82-.23c.2,0,.89,0,1.09,0,2.42,0,4.25-.32,6.52-.55l.26,0a8.72,8.72,0,0,0,1.07-.06Z" transform="translate(-11.6 -8.19)"/><path class="cls-4" d="M139,87.11c0-.8,0-1.55,0-2.26s0-1.42,0-2.15,0-1.57.05-2.51c0-.45,0-1.12,0-2s0-1.92.06-3.09.07-2.42.12-3.75.11-2.66.19-4,.17-2.61.28-3.83.24-2.31.39-3.25a12.88,12.88,0,0,1,.55-2.26c.2-.56.44-.84.71-.84s.48.18.67.55a5.59,5.59,0,0,1,.47,1.52,20.7,20.7,0,0,1,.27,2.36c.05.92.07,1.94.07,3.07q0,3.39-.33,6.75T141.78,78q-.53,3.21-1.24,6.23T139,89.94c0-1.08,0-2,0-2.83" transform="translate(-11.6 -8.19)"/><path class="cls-4" d="M186.48,87.11c0-.8,0-1.55,0-2.26s0-1.42,0-2.15,0-1.57.05-2.51c0-.45,0-1.12,0-2s0-1.92.06-3.09.07-2.42.12-3.75.11-2.66.19-4,.17-2.61.28-3.83.24-2.31.4-3.25a12.14,12.14,0,0,1,.54-2.26c.2-.56.44-.84.71-.84s.48.18.67.55a5.59,5.59,0,0,1,.47,1.52,20.7,20.7,0,0,1,.27,2.36c.05.92.07,1.94.07,3.07q0,3.39-.33,6.75T189.25,78q-.52,3.21-1.24,6.23t-1.56,5.73c0-1.08,0-2,0-2.83" transform="translate(-11.6 -8.19)"/><path class="cls-4" d="M140.72,115.8a44.28,44.28,0,0,1,1.16,4.47,46.11,46.11,0,0,1,.7,4.69,44.83,44.83,0,0,1,.24,4.52c0,.57,0,1.3-.08,2.21s-.16,1.8-.3,2.67a11,11,0,0,1-.59,2.26c-.26.64-.59.95-1,.95s-.78-.52-1-1.57a28.51,28.51,0,0,1-.52-4.13c-.12-1.71-.18-3.64-.19-5.78s0-4.31,0-6.51c0-1.06,0-2.23,0-3.51s0-2.67,0-4.16a25.41,25.41,0,0,1,1.59,3.89" transform="translate(-11.6 -8.19)"/><path class="cls-4" d="M146.68,87.76c0-.22.07-.49.12-.83s.12-.64.18-.93.14-.54.2-.75.11-.31.15-.31.08.11.12.33.06.49.08.79,0,.62,0,.94,0,.57,0,.76Z" transform="translate(-11.6 -8.19)"/><path class="cls-4" d="M160.84,99.35q-.1-.82-.18-1.74c0-.61-.07-1.19-.07-1.74,0-.89,0-1.78.12-2.68a16.52,16.52,0,0,1,.36-2.45,6.69,6.69,0,0,1,.65-1.79,1.15,1.15,0,0,1,1-.69c.28,0,.52.24.73.71a5.38,5.38,0,0,1,.32,2.09,14.39,14.39,0,0,1-.21,2.45,15,15,0,0,1-.59,2.31,11.67,11.67,0,0,1-.91,2,6.41,6.41,0,0,1-1.19,1.51" transform="translate(-11.6 -8.19)"/><path class="cls-4" d="M170.64,99.35c-.07-.55-.12-1.13-.17-1.74s-.08-1.19-.08-1.74c0-.89,0-1.78.12-2.68a17.87,17.87,0,0,1,.37-2.45,6.07,6.07,0,0,1,.65-1.79,1.12,1.12,0,0,1,1-.69c.28,0,.53.24.74.71a5.41,5.41,0,0,1,.31,2.09,14.39,14.39,0,0,1-.21,2.45,15,15,0,0,1-.59,2.31,11,11,0,0,1-.91,2,6.41,6.41,0,0,1-1.19,1.51" transform="translate(-11.6 -8.19)"/></g></svg>