<svg id="Layer_1" data-name="Layer 1" xmlns="http://www.w3.org/2000/svg" viewBox="0 0 654.8179 467.65711"><defs><style>.cls-1{fill:#dedddd;}.cls-2{fill:#e2e1e2;}.cls-3{fill:#e3e2e2;}.cls-4{fill:#e6e5e6;}.cls-5{fill:#ebeaeb;}</style></defs><title>Grieta</title><path class="cls-1" d="M412.78167,89.67342c4.37274-.24164,7.10309,2.93579,9.707,5.45619,4.37281,4.2325,8.74149,4.11484,13.66968,1.74649,6.14191-2.95162,12.11264-6.23529,18.72031-8.19316,6.82913-2.02349,13.59231-.95382,20.20282.37015,4.68918.93917,8.18606.1445,11.13809-3.39963,6.73694-8.08814,13.43252-16.21073,20.41858-24.64994-2.64655-.47658-4.23322.64317-5.9202,1.16514a7.07284,7.07284,0,0,1-6.21472-.71918c-1.3089-.83132-2.71158-2.18025-1.99976-3.58711.86521-1.71,2.40039-.19309,3.37745.40461,2.86645,1.75351,5.6437,1.37761,8.601.30115q72.604-26.4277,145.22754-52.80129c4.69293-1.70623,13.64685,4.56746,13.85431,9.70422.11487,2.84213-2.39374,2.48705-3.854,2.96439Q626.779,29.20071,593.76312,39.7049a29.255,29.255,0,0,0-12.884,8.15078c-3.18853,3.41281-4.12866,6.55741-.98748,10.53848,2.77288,3.51427,5.04779,7.41918,7.7843,10.96512,2.31378,2.99807,2.16266,5.153-1.06342,7.38612-5.86938,4.0629-11.4989,8.47173-17.35473,12.55525-4.55176,3.17414-7.85987,6.90169-7.06641,13.80247-3.50085-4.2437-3.03107-7.7024-.39764-10.95528a31.73247,31.73247,0,0,1,9.60333-7.853,47.13985,47.13985,0,0,0,7.72656-5.43087c3.85083-3.23558,3.537-6.37249.49262-9.77941-.88727-.993-1.94953-1.83776-2.77967-2.8723-4.39233-5.47331-10.65912-10.536-3.55145-18.47124-2.99707-.69489-4.96783.23678-6.9577.89338-12.47284,4.11558-24.84717,8.56288-37.44159,12.2621-5.96881,1.75315-9.46375,5.92706-13.02793,10.2346-18.40338,22.2419-36.66738,44.59923-55.09246,66.823-4.0264,4.85649-8.49726,9.34589-12.79154,13.97831-2.30975,2.49166-2.07449,4.10067,1.27786,5.4459,10.4907,4.20963,11.421,12.01645,2.42667,19.889-1.46954-1.56236.39035-2.313.88193-3.25876,3.566-6.86088,2.176-10.96379-4.81723-13.86578-7.58921-3.14931-7.53632-3.11281-2.89121-9.84337.86249-1.24969,3.23017-2.24876,2.10047-4.02425-.92322-1.45108-3.11313-.69415-4.70142-.5973-20.5191,1.25134-41.05545,3.8073-61.54092,3.43986-12.71018-.228-19.69989,5.15042-25.69956,14.67524-2.19977,3.49223-5.08087,6.55249-7.61392,9.8385-1.71579,2.22578-1.89447,4.09333.2149,6.57486,3.88956,4.57582,8.14625,8.77111,12.2595,13.11784,3.62954,3.83554,3.40087,5.35428-.89188,8.17-10.56287,6.92844-21.04468,13.98333-31.697,20.771-3.882,2.47362-4.57022,4.675-1.348,8.29672,2.29489,2.57941,4.01062,5.65491,6.37387,8.27071,3.26623,3.61522,1.7731,8.83282-3.796,11.75143,4.15579-5.87275,1.83359-9.70717-2.43176-13.217-2.30472-1.89647-4.21357-4.26612-6.39051-6.32779-2.96811-2.811-2.38968-5.08093.753-7.29227q14.25747-10.03207,28.43393-20.17926c5.204-3.7092,5.25016-4.68771.819-9.48208-3.15677-3.41556-6.04806-7.10216-9.41543-10.29-3.20288-3.03216-3.15051-5.908-.8403-9.2554q6.65373-9.64107,13.23812-19.33c.72852-1.06687,2.00123-2.16441,1.1998-3.51938-.91772-1.55159-2.6586-.8045-4.11276-.89091-11.79031-.70067-17.31912,8.43348-23.98471,15.4985-8.08664,8.57118-15.71905,17.57-23.5831,26.35245-6.09418,6.80584-12.02832,13.77327-18.42,20.28981-8.163,8.32242-18.07941,14.55334-27.18016,21.7603-6.99416,5.53872-15.10758,9.79072-20.49877,17.169-4.58441,6.27412-4.77,14.00088-6.1755,21.26819-.38112,1.97058,2.00251,2.82693,3.87248,4.61081-7.69271.47308-6.41132,6.69012-7.81334,11.01211-.96448,2.97327,1.83026,3.23526,3.90759,3.90695q24.1857,7.8204,48.32984,15.76917c.28979.095.50943.4042.71887.57782-10.24433,5.19586-18.86911,12.866-28.56316,18.92-2.58319,1.61322-1.2866,2.87647.918,3.70215,2.875,1.07678,6.11064,1.18781,9.90852,3.61685-5.16857.91382-8.77783-.75308-12.48016-1.46133-2.40282-.45966-4.819-1.472-7.13309.39749-.87339.70554-2.36978.911-2.37361,2.28339-.00416,1.48873,1.522,1.61068,2.53375,1.98663,6.85206,2.546,13.69748,5.11731,20.60912,7.49414,15.499,5.33,15.71332,5.21469,21.16006,20.4711,10.56012,29.57913,20.90723,59.23453,31.25757,88.888,2.04032,5.84552,4.93985,11.45206,5.38825,17.82437-3.06934-3.5115-4.2388-7.97262-6.04547-12.05163-11.50891-25.98359-22.83188-52.04959-34.19147-78.09919-2.85547-6.54809-5.69376-13.10556-8.40237-19.71511a15.48942,15.48942,0,0,0-9.18268-9.0897c-9.84645-4.0115-19.41906-8.71585-28.99074-13.369-3.03987-1.47779-5.09993-.23188-7.17569,1.49054-.81073.67269-.75786,3.31707-2.50127,1.40734-1.21121-1.32678.74256-2.34021,1.65067-3.05383,5.87166-4.61417,11.82988-9.11832,17.76727-13.64865,5.80562-4.42972,11.57561-8.90814,17.45119-13.24326,2.64871-1.95431,3.31285-3.31613-.46864-4.5375-6.1702-1.993-12.25957-4.24671-18.4672-6.11-5.73805-1.72238-10.29344,1.62546-14.855,4.25785-1.63829.9454-1.07617,2.98242-.70293,4.62094.21193.93027.89234,2.01449-.60444,2.39807-1.276.327-1.71932-.75519-2.10486-1.66315-1.31122-3.0878-.54112-5.40451,2.42641-7.155,2.68475-1.58371,6.09607-1.84057,8.7185-5.09338-7.34236-.52069-13.10367-6.478-20.73591-3.75678a1.55669,1.55669,0,0,1-.02533-2.12506c2.48848-10.42788,4.977-20.8558,7.74229-32.44388-8.26715,6.24289-15.73483,11.78339-23.09637,17.46155-15.33725,11.83008-30.60889,23.74521-45.92592,35.60157Q137.72,326.61771,122.93529,337.93552c-1.30766,1.00213-2.75242,1.82531-4.1337,2.73135-.99218.30063-1.27887-.111-1.05152-1.04156L236.29086,241.402l-.41507-.76965c-15.57584,3.78762-31.049,8.09179-46.75708,11.21412-14.989,2.9794-26.99,11.647-39.85878,18.77287-8.725,4.83133-17.48316,9.60288-26.19862,14.45121-1.06164.59057-1.51312.9331-2.83739-.10242-6.19074-4.84094-13.536-7.71469-20.46308-11.29953a5.17591,5.17591,0,0,0-2.34564-.68021c-5.06231.11032-17.27809,10.56052-18.70668,15.77942-.65176,2.38105-.65,5.03159-2.24278,7.05164-.91649,1.16235-2.34106,2.211-3.91078,1.3883-1.23327-.64633-.55671-2.02264-.50566-3.16281.34612-7.73144,4.25317-13.04486,10.95282-16.573a17.46148,17.46148,0,0,0,3.71192-2.50574c1.097-1.01157,3.84141-1.50842,2.60458-3.51639-1.15939-1.88229-3.03816-.06006-4.37644.64261-10.3069,5.41144-20.612,10.83047-30.81271,16.438a25.60367,25.60367,0,0,1-13.334,3.207c-9.79528-.1983-19.59388-.0213-29.238-2.13336a23.93982,23.93982,0,0,1-2.80771-.97913v-1c10.99687-.00091,21.99429-.06375,32.99029.03366a19.35292,19.35292,0,0,0,9.55571-2.384c12.44161-6.70752,24.91791-13.35385,37.255-20.249,2.03084-1.135,3.50181-.55881,5.10013.12216,8.103,3.45242,16.20366,6.91607,24.22224,10.55832,4.714,2.14123,8.72878,2.31494,13.5327-.68357,10.53916-6.57824,21.99767-11.72509,32.32218-18.59626,16.1548-10.75139,35.26515-11.90464,52.926-17.68819,8.6413-2.82983,17.74941-4.21654,26.43662-6.928,12.97274-4.04906,22.58162-13.11558,31.62385-22.76674q10.56175-11.273,20.86347-22.78888,15.11787-16.88184,30.04406-33.93506c.67954-.77153,2.168-1.42666,1.2006-2.85133-.62555-.92122-1.7652-.72-2.75187-.82564a19.89594,19.89594,0,0,0-17.12985,6.16329c-5.56222,5.54931-11.79861,10.29777-20.16864,10.83032-1.20843.34009-2.6647,1.45256-2.99014-.95938a44.744,44.744,0,0,0,24.51852-14.24636,14.83112,14.83112,0,0,1,10.15674-4.65325c13.34927-1.23081,26.73569-2.05269,40.093-3.20366,13.50928-1.16408,26.99646-2.58243,40.50152-3.7984,8.90226-.80158,17.81852-1.4487,26.72953-2.15229,4.78686-.378,9.58984-.6049,14.3584-1.14117a10.23008,10.23008,0,0,0,6.90771-3.57665c9.62692-11.399,19.31445-22.74676,28.9458-34.142,1.98245-2.34553,1.26761-3.52846-1.65777-4.45691-10.59-3.361-20.65433-1.76827-30.46076,2.76472-3.77328,1.74418-7.39438,3.817-11.16385,5.5701-3.78061,1.7583-7.22665,1.71494-10.33172-1.77713-2.634-2.96231-5.73453-5.50983-8.62864-8.24089C413.2116,91.08037,412.14419,90.80059,412.78167,89.67342Z" transform="translate(-8.74975 -5.48092)"/><path class="cls-2" d="M283.78207,164.6767c.73163,1.14552,1.9115.89389,2.9899.95927-4.80359,1.82244-10.0203,1.18842-14.94187,2.72325-7.80078,2.4327-14.98735,6.05909-22.15345,9.78087C259.6526,170.18172,270.63735,164.72963,283.78207,164.6767Z" transform="translate(-8.74975 -5.48092)"/><path class="cls-3" d="M117.75009,339.62531q.52528.52029,1.051,1.04107c-4.23,4.47718-9.46907,7.66663-14.57444,11.07968C107.96362,346.86032,112.95026,343.344,117.75009,339.62531Z" transform="translate(-8.74975 -5.48092)"/><path class="cls-4" d="M412.78167,89.67342l.9689,1.94941c-4.8384-.53559-8.534,3.13615-13.15856,3.52631C404.3941,92.70263,408.2872,90.52548,412.78167,89.67342Z" transform="translate(-8.74975 -5.48092)"/><path class="cls-5" d="M213.72357,294.60153q.01275,1.06142.02543,2.124c-.49589.82608-.911,1.77166-2.58145,1.38378C212.08758,296.84668,212.90557,295.72409,213.72357,294.60153Z" transform="translate(-8.74975 -5.48092)"/></svg>