<svg id="Layer_1" data-name="Layer 1" xmlns="http://www.w3.org/2000/svg" viewBox="0 0 60.59363 29.12494"><defs><style>.cls-1{fill:#fff;stroke:#c38888;stroke-linecap:round;stroke-linejoin:round;stroke-width:2px;}.cls-2{fill:#c38888;}</style></defs><title>Hospedaje</title><path class="cls-1" d="M12.31754,1H47.54092a4.17773,4.17773,0,0,1,4.17773,4.17773v11.5098a.62494.62494,0,0,1-.62494.62494H9.31242a.62494.62494,0,0,1-.62494-.62494V4.63006A3.63006,3.63006,0,0,1,12.31754,1Z"/><path class="cls-1" d="M11.29546,10.91138s-7.40624-1.875-7.5,3.375L3.70172,27.3176h7.68749Z" transform="translate(-2.70172 -1.80202)"/><path class="cls-1" d="M54.70162,10.91138s7.40623-1.875,7.5,3.375l.09375,13.03123H54.60787Z" transform="translate(-2.70172 -1.80202)"/><rect class="cls-1" x="8.49998" y="17.40622" width="43.12491" height="7.96873"/><rect class="cls-2" x="7.46874" y="26.12495" width="2.71874" height="2.99999"/><rect class="cls-2" x="50.17178" y="26.12495" width="2.71874" height="2.99999"/></svg>