<svg id="Layer_1" data-name="Layer 1" xmlns="http://www.w3.org/2000/svg" viewBox="0 0 37.07767 39.53899"><defs><style>.cls-1{fill:#1d1d1b;}.cls-1,.cls-2,.cls-4{stroke:#c38888;stroke-linecap:round;stroke-linejoin:round;}.cls-1,.cls-2{stroke-width:2px;}.cls-2{fill:none;}.cls-3,.cls-4{fill:#c38888;}</style></defs><title>IntereÌs social</title><line class="cls-1" x1="1" y1="3.10156" x2="1.05457" y2="36.1458"/><line class="cls-1" x1="15.71834" y1="38.53899" x2="1.05457" y2="36.1458"/><line class="cls-2" x1="35.61234" y1="36.70464" x2="15.71834" y2="38.53899"/><line class="cls-1" x1="35.9683" y1="3.38281" x2="35.9683" y2="36.38274"/><line class="cls-1" x1="16.09334" y1="4.3203" x2="16.09334" y2="38.16399"/><line class="cls-1" x1="15.34334" y1="21.00777" x2="1.84336" y2="19.88277"/><line class="cls-1" x1="16.74958" y1="21.00777" x2="35.2183" y2="20.35152"/><path class="cls-3" d="M25.88923,10.53514h.72514a1.76019,1.76019,0,0,1,1.76019,1.76019v7.70854a0,0,0,0,1,0,0H24.06207a0,0,0,0,1,0,0V12.3623a1.82716,1.82716,0,0,1,1.82716-1.82716Z"/><path class="cls-3" d="M25.88923,27.621h.72514a1.76019,1.76019,0,0,1,1.76019,1.76019v7.70854a0,0,0,0,1,0,0H24.06207a0,0,0,0,1,0,0V29.4482A1.82716,1.82716,0,0,1,25.88923,27.621Z"/><polygon class="cls-4" points="16.934 0.5 36.578 2.713 16.434 4.086 0.648 2.713 16.934 0.5"/><rect class="cls-3" x="9.64804" y="9.64061" width="3.79687" height="4.85155"/><rect class="cls-3" x="9.64804" y="26.79682" width="3.79687" height="4.85155"/><rect class="cls-3" x="4.02305" y="26.79682" width="3.79687" height="4.85155"/><rect class="cls-3" x="4.02305" y="9.64061" width="3.79687" height="4.85155"/></svg>