<svg id="Layer_1" data-name="Layer 1" xmlns="http://www.w3.org/2000/svg" viewBox="0 0 291.47477 174.74252"><defs><style>.cls-1{fill:#fff;}.cls-2{fill:#9a2f49;}.cls-3{fill:#874659;}</style></defs><title>Freeda</title><path class="cls-1" d="M302.8797,92.8358a2.20448,2.20448,0,0,1-1.042,0c-5.163-.066-10.223.231-15.294.443-5.295.221-10.589.063-16.026.247-5.242.178-10.225.721-15.354.595a4.9999,4.9999,0,0,1-1.508.017c-.055-.015-1.088.026-1.144.027-2.401.05-3.816.331-6.176.396-3.912.108-7.8.045-11.68.103v-.005c-.454.032-.985-.126-1.451-.137a8.30388,8.30388,0,0,1-4.2-1.369c-3.025-1.722-4.648-4.889-6.625-7.73a25.81982,25.81982,0,0,0-3.435-4.361c-.856-.796-1.941-1.756-3.224-.895-1.736.452-2.176,2.097-2.687,3.52-1.169,3.256-2.922,6.958-4.005,10.245-.249.754-.28.851-.458,1.54l-2.354,7.786a17.86034,17.86034,0,0,1-1.091,1.943c-.328.388-.749.761-1.084.761-.517,0-.924-.404-1.217-1.151a11.97048,11.97048,0,0,1-.661-2.645,30.61418,30.61418,0,0,1-.282-3.072q-.063-1.54649-.084-2.399a2.97031,2.97031,0,0,0-.241-1.121c-.147-.329-.318-.492-.514-.492q-.315,0-.544.425a2.57331,2.57331,0,0,0-.273,1.054,27.53512,27.53512,0,0,1-.514,4.035,17.70078,17.70078,0,0,1-.816,2.823,5.55762,5.55762,0,0,1-.944,1.66,1.3205,1.3205,0,0,1-.869.538,1.08328,1.08328,0,0,1-.88-.448,3.432,3.432,0,0,1-.567-1.165,8.62977,8.62977,0,0,1-.292-1.593q-.08549-.873-.085-1.726a23.80573,23.80573,0,0,1,.409-4.729,15.4475,15.4475,0,0,1,1.017-3.319,5.6178,5.6178,0,0,1,1.341-1.95,2.1919,2.1919,0,0,1,1.383-.627,1.52611,1.52611,0,0,1,.785.201,2.596,2.596,0,0,1,.598.471,3.06156,3.06156,0,0,1,.399.515c.096.165.161.277.188.337.153.328.342.494.565.494.21,0,.392-.173.545-.517a2.88123,2.88123,0,0,0,.23-1.188,3.25222,3.25222,0,0,0-.23-1.21c-.013-.03-.089-.172-.23-.426a5.18333,5.18333,0,0,0-1.53-1.659,2.04128,2.04128,0,0,0-1.195-.381,3.122,3.122,0,0,0-2.001.897,8.19159,8.19159,0,0,0-1.897,2.689,19.7533,19.7533,0,0,0-1.414,4.462,30.4988,30.4988,0,0,0-.556,6.164c0,.451.024.877.047,1.301-.022.065-.039.131-.066.197a13.82083,13.82083,0,0,1-1.435,2.621,2.09453,2.09453,0,0,1-1.608,1.069q-2.17052,0-3.312-9.315.63-2.6205,1.4-6.248.768-3.63,1.457-7.904.6885-4.27352,1.154-8.952.4665-4.67548.467-9.354,0-2.17651-.164-3.991a19.275,19.275,0,0,0-.501-3.106,5.98723,5.98723,0,0,0-.874-2.016,1.58642,1.58642,0,0,0-1.307-.726,1.88816,1.88816,0,0,0-1.538,1.029,10.2169,10.2169,0,0,0-1.178,2.802,33.44182,33.44182,0,0,0-.85,4.112q-.351,2.33848-.56,4.94-.21,2.601-.304,5.322-.093,2.72252-.093,5.222,0,5.727.326,10.362.327,4.63952.724,8.186-.70052,3.024-1.27,4.879a22.47153,22.47153,0,0,1-1.05,2.862,4.01214,4.01214,0,0,1-.898,1.352,1.28754,1.28754,0,0,1-.792.343q-.9105,0-1.388-1.129a8.29959,8.29959,0,0,1-.478-3.146,18.08855,18.08855,0,0,1,.432-4.233,11.048,11.048,0,0,1,1.097-2.925,5.78791,5.78791,0,0,1,1.457-1.753,3.98741,3.98741,0,0,1,1.491-.766.8522.8522,0,0,0,.558-.524,2.31272,2.31272,0,0,0,.211-1.008,2.05554,2.05554,0,0,0-.255-1.069.7304.7304,0,0,0-.608-.424,3.34162,3.34162,0,0,0-2.156.928,8.76164,8.76164,0,0,0-1.97,2.602,16.9659,16.9659,0,0,0-1.445,4.011,21.61634,21.61634,0,0,0-.547,4.608c-.061.162-.112.316-.179.481a11.47671,11.47671,0,0,1-1.531,2.817,2.37719,2.37719,0,0,1-1.867,1.076,2.15986,2.15986,0,0,1-1.7-.801,6.191,6.191,0,0,1-1.133-2.129,12.05889,12.05889,0,0,0,1.532-2.063,14.989,14.989,0,0,0,1.227-2.611,18.55967,18.55967,0,0,0,.807-3.069,20.105,20.105,0,0,0,.294-3.528,13.37327,13.37327,0,0,0-.23-2.611,8.61781,8.61781,0,0,0-.609-1.948,3.98652,3.98652,0,0,0-.849-1.237,1.42118,1.42118,0,0,0-.955-.435,1.941,1.941,0,0,0-1.5.826,7.181,7.181,0,0,0-1.176,2.289,18.63787,18.63787,0,0,0-.755,3.437,32.699,32.699,0,0,0-.263,4.306c0,.55.03,1.1.056,1.65-.011.046-.014.091-.025.137a31.58147,31.58147,0,0,1-1.239,3.894,11.50976,11.50976,0,0,1-1.531,2.817,2.37887,2.37887,0,0,1-1.868,1.076,2.15648,2.15648,0,0,1-1.699-.801,6.2088,6.2088,0,0,1-1.134-2.129,11.95425,11.95425,0,0,0,1.532-2.063,14.98991,14.98991,0,0,0,1.228-2.611,18.76023,18.76023,0,0,0,.807-3.069,20.10775,20.10775,0,0,0,.293-3.528,13.29555,13.29555,0,0,0-.23-2.611,8.568,8.568,0,0,0-.609-1.948,3.95315,3.95315,0,0,0-.849-1.237,1.41924,1.41924,0,0,0-.955-.435,1.9439,1.9439,0,0,0-1.5.826,7.181,7.181,0,0,0-1.175,2.289,18.63175,18.63175,0,0,0-.756,3.437,32.70562,32.70562,0,0,0-.262,4.306c0,.291.022.581.03.871-.095.469-.205.973-.371,1.555a36.04679,36.04679,0,0,1-1.176,3.469,15.02362,15.02362,0,0,1-1.433,2.802,2.11684,2.11684,0,0,1-1.658,1.165,1.1782,1.1782,0,0,1-.633-.229,2.13614,2.13614,0,0,1-.655-.81,6.07986,6.07986,0,0,1-.511-1.557,12.32431,12.32431,0,0,1-.206-2.472q0-1.038.062-2.118c.04-.722.088-1.448.144-2.182.053-.734.102-1.447.142-2.139q.063-1.0395.062-1.994a7.00514,7.00514,0,0,0-.615-3.406,1.95122,1.95122,0,0,0-1.779-1.038c-.205,0-.419.006-.645.021-.225.012-.454.02-.686.02q0-.831-.071-1.952-.072-1.1205-.235-2.14a7.65472,7.65472,0,0,0-.461-1.723q-.29551-.7065-.767-.707-.40951,0-.819.853a12.48433,12.48433,0,0,0-.737,2.014,21.48372,21.48372,0,0,0-.521,2.367,12.65013,12.65013,0,0,0-.195,1.912,4.33532,4.33532,0,0,0,.206,1.494,1.76059,1.76059,0,0,0,.521.789,1.34519,1.34519,0,0,0,.685.291,6.10312,6.10312,0,0,0,.717.042q-.1845,1.82851-.307,2.7-.123.8715-.204,1.246c-.018.077-.031.132-.045.193a31.11666,31.11666,0,0,1-1.038,3.067,25.24749,25.24749,0,0,1-1.631,3.427,24.85351,24.85351,0,0,1-2.178,3.2,16.58011,16.58011,0,0,1-2.711,2.685c0-.753.002-1.644.009-2.668q.01047-1.5375.011-3.217v-6.485q1.10853-3.498,2.086-7.104.978-3.6045,1.704-7.388.7245-3.78,1.149-7.81a80.16747,80.16747,0,0,0,.424-8.342q0-2.049-.162-3.922a20.05331,20.05331,0,0,0-.524-3.27,6.90062,6.90062,0,0,0-.947-2.227,1.71476,1.71476,0,0,0-1.433-.831q-1.068,0-1.763,1.715a20.68419,20.68419,0,0,0-1.099,5.001q-.40353,3.288-.584,8.059-.18151,4.77-.242,10.85-.04051,3.18-.061,6.733-.0195,3.552-.04,7.229c-.004.729-.006,1.453-.009,2.181l-.037.005.034.8q-.01047,2.175-.018,4.346-.0105,3.6585-.021,6.999c-.006,2.145-.01,4.152-.01,6.034l-.089,1.422s-.773,7.06-2.54-.674l-.503-2.569c-.054-.978-.106-1.761-.113-1.991-.082-.616-.15-1.726-.164-2.465-.082-4.424-.865-8.796-1.125-13.193q-.7965-13.4385-1.654-26.873c-.51-8.113-.825-14.292-1.714-22.374-.075-.694-.115-.482-.41-1.123-.258-.561-.274-.603-1.178-1.013-.659-.3-.932,0-1.342.355-.946.819-.896.988-.877,2.219.078,5.116-.562,9.401-.64,14.508-.285,18.66,1.221,37.553.448,56.218-.397,9.589.028,18.773.11,28.378.13,6.137.082,22.455.082,28.556,0-.668-.246,8.108-1.315,5.437-.041-.103-.424-17.174-.411-17.284.014-.116-.108-.53-.109-.657-.017-1.275-.062-1.614-.044-2.247.007-.209.02-.449.044-.766.001-.014,0-.645,0-.658.003-.396-.051-.647-.055-1.04.006-.56.09-1.36.055-1.918-.329-5.341.109-10.82.027-16.491-.135-9.29-.629-18.525-.617-27.819.002-.775-.009-1.55-.06-2.323-.741-11.356-.822-22.738-1.235-34.107-.287-7.885-.717-15.296-.882-23.185-.011-.542.04-1.185,0-1.726-.437-6.013-.225-12.447-.658-18.462a137.199,137.199,0,0,0-.41-13.86c-.005-.039-.049-.482-.055-.521a14.26859,14.26859,0,0,0-.356-3.588,27.5546,27.5546,0,0,0-.575-2.794c-.112-.357-.13-.568-.219-.931-.156-.635-.35-.49-1.206-.521-1.26-.044-.99.566-1.205,1.096a3.40874,3.40874,0,0,0-.191.986,6.97342,6.97342,0,0,0-.083.877l-.41,3.506c-.002.023-.081.471-.082.493-.046,3.399-.055,6.284-.019,9.699,0,.025-.016.113-.016.138-.005.292-.049.279-.041.462.02.463-.056,2.329-.062,2.794-.067,5.241-.41,8.875-.109,14.217,0,.014-.053.424-.055.438a1.08418,1.08418,0,0,0-.02.22c-.758,26.163-.862,53.315-2.383,79.471l-.339,1.034a.48052.48052,0,0,1-.709-.36c-.507-4.489-1.228-10.054-1.641-14.48-1.07-11.476-2.009-22.965-3.147-34.434-.61-6.143-.992-12.331-2.503-18.354-.214-.854-.248-2.045-1.482-2.048-1.148-.002-1.375,1.117-1.678,1.966a71.63088,71.63088,0,0,0-2.648,11.942c-1.362,7.829-2.358,15.722-4.118,23.48a9.68678,9.68678,0,0,1-1.333,3.89.49318.49318,0,0,1-.769.024,7.137,7.137,0,0,1-1.195-2.535c-1.069-3.292-2.065-6.609-3.221-9.87-.504-1.425-.937-3.071-2.671-3.532-1.279-.866-2.368.089-3.228.881a25.79767,25.79767,0,0,0-3.454,4.347c-1.989,2.832-3.625,5.991-6.658,7.701a8.54087,8.54087,0,0,1-4.375,1.1c-3.503.072-6.666-1.218-9.916-2.203-4.583-1.388-9.019-3.332-13.836-3.844-6.589-.7-12.931.628-19.193,2.488a40.15844,40.15844,0,0,0-4.149,1.446l-.356.109a40.58362,40.58362,0,0,0-6.791,2.371c-.893.452-2.665.457-2.247,1.799.455,1.459,1.951.589,3.029.331a5.81968,5.81968,0,0,0,.651-.245,144.86466,144.86466,0,0,1,14.151-4.586c7.418-1.937,14.797-2.293,22.185.378a81.95608,81.95608,0,0,0,10.838,3.486c8.899,1.877,11.409.268,16.149-5.717,1.635-2.066,2.897-4.41,4.638-6.396,1.583-1.803,2.661-1.664,3.572.532a69.73977,69.73977,0,0,1,2.497,7.495,15.78656,15.78656,0,0,0,2.091,5.143c1.219,1.67,2.369,1.65,3.786.011.032-.055.065-.111.097-.165a21.833,21.833,0,0,0,.92-2.214c.064-.233.175-.45.229-.684.781-3.803,2.46-7.431,2.355-11.365l.003-.067.132-1.036c.227-1.592.531-2.931.628-4.557.001-.014.003-.029.005-.043.19-1.077.286-2.172.537-3.239l.009-.059a28.94675,28.94675,0,0,1,.833-5.014l.006-.029c.192-1.038.349-2.082.584-3.112.001-.011.003-.021.005-.032a38.36993,38.36993,0,0,1,1.278-6.193.493.493,0,0,1,.949.021,26.22157,26.22157,0,0,1,.892,5.329c.037.768.164.903.164,1.89a28.79413,28.79413,0,0,0,.255,3.057,6.5889,6.5889,0,0,1,.175,1.034,11.36925,11.36925,0,0,0,.23,3.537c.497,1.856.3,3.791.626,5.722a23.26113,23.26113,0,0,1,.314,3.193c.022.495.211.971.203,1.469a35.66828,35.66828,0,0,0,.408,4.077c.117,1.331.117,2.481.159,3.733.016.496.131.966.16,1.453.02.609.218,1.201.204,1.814a10.968,10.968,0,0,0,.218,2.898,6.76787,6.76787,0,0,1,.033.756c.489,3.743.827,7.499.966,11.275l.003.051c.029.247.123.481.134.73.048,1.082.283,2.133.345,3.207a5.83095,5.83095,0,0,0,.177,1.043c.336.869.195,1.816.458,2.695.097.189.082.936.187,1.2l.042.126c.334,2.161.131,1.58.558,3.734.17.858.623,2.854,1.602,3.328l.263-.704-.263.804a.99156.99156,0,0,0,.452.101c1.145-.015,1.634-1.436,1.828-2.342.384-1.78.17-2.171.48-4.341a21.95624,21.95624,0,0,0,.161-2.468c.746-12.055.766-24.137,1.385-36.198.31-6.028.294-12.081.358-18.11.16-15.258.534-30.221.369-45.588-.002-.221.494-7.696.74-6.217-.03-.179.884,5.701.904,5.889.904,8.409.04,17.124.329,25.556.476,13.926.573,27.663.877,41.591.181,8.205.958,16.315.958,24.534a19.20112,19.20112,0,0,1,.055,2.958c-.015.11.052,2.135.054,2.246.11,4.711.425,7.476.548,12.107.26,9.765.243,19.472.548,29.145.002.04,0,.892,0,.932.004,1.012.008,1.901.04,2.792.032.921.096,1.845.221,2.909.001.051.001.104.002.157-.032.224-.002.918-.032,1.15l-.012.226v.545c.004.11-.064.93-.054,1.041.109,1.314.164.566.164,1.369,0,2.301.406,4.04.456,6.195.001,1.485.168,2.95.188,4.447.013.959.26,1.986.301,2.848a16.25809,16.25809,0,0,0,.123,2.425,2.47256,2.47256,0,0,0,.643,1.258.51855.51855,0,0,0,.452.169c1.031-.14,1.288-.148,1.617-.893a7.09561,7.09561,0,0,1,.159-1.504c.047-.053.088-.184.088-.489.017-1.573.287-2.485.396-4.214.094-1.509.186-2.99.168-4.489a15.23312,15.23312,0,0,0-.002-1.669,40.20387,40.20387,0,0,1,.176-5.41c.026-.383.042-1.016.042-1.4-.002-6.92.236-12.693.288-19.571.038-5.077.179-10.427.274-15.504-.097-26.69-1.292-53.216-.795-79.902.006-.307-.014-1.919.055-2.218a.7098.7098,0,0,1,.466-.466c.118-.325.986.219.958.959-.005.164.191.928.192,1.04.215.492.079,1.033.247,1.534.031.13-.004.884.027,1.014.374,5.261.011,9.929.338,15.193,1.068,17.238-.551,35.209,4.36,51.766a6.076,6.076,0,0,0,.407,1.1c.36,1.128.982,1.985,2.04,2.064a2.70676,2.70676,0,0,0,1.414-.826v.56q0,4.416.051,8.18.04951,3.7665.363,6.538a16.21946,16.21946,0,0,0,.977,4.348q.666,1.5735,1.876,1.573a1.84764,1.84764,0,0,0,1.471-.831,7.29271,7.29271,0,0,0,1.099-2.278,19.06678,19.06678,0,0,0,.685-3.412,35.85637,35.85637,0,0,0,.232-4.188,50.48418,50.48418,0,0,0-.272-5.107,53.16088,53.16088,0,0,0-.807-5.284,43.28436,43.28436,0,0,0-1.34-5.036,26.48049,26.48049,0,0,0-1.895-4.401,19.34065,19.34065,0,0,0,3.003-3.04,24.74369,24.74369,0,0,0,2.289-3.445,27.165,27.165,0,0,0,1.662-3.642c.304-.817.557-1.612.789-2.394a1.86966,1.86966,0,0,0,.283-.717,4.92006,4.92006,0,0,0,.101-.5q.08249-.4545.195-1.183.11249-.7275.235-1.703.123-.9765.204-2.098a6.79961,6.79961,0,0,1,.728-.042h.623a.74539.74539,0,0,1,.767.395,3.07662,3.07662,0,0,1,.175,1.185q0,1.86749-.205,3.925-.204,2.055-.204,4.132a19.52361,19.52361,0,0,0,.286,3.511,11.378,11.378,0,0,0,.767,2.616,4.58941,4.58941,0,0,0,1.137,1.621,2.10218,2.10218,0,0,0,1.391.561,2.78569,2.78569,0,0,0,2.179-1.288,14.439,14.439,0,0,0,1.79-3.158c.402-.941.759-1.949,1.095-2.991a20.4635,20.4635,0,0,0,.802,3.283,9.25434,9.25434,0,0,0,1.658,3.023,3.06874,3.06874,0,0,0,2.392,1.169q2.16-.093,3.871-3.619a17.99906,17.99906,0,0,0,1.283-3.364,19.71846,19.71846,0,0,0,.713,2.791,9.2351,9.2351,0,0,0,1.657,3.023,3.06874,3.06874,0,0,0,2.392,1.169c1.832,0,3.741-3.384,3.871-3.619.014-.025.027-.06.04-.086a8.26177,8.26177,0,0,0,.729,2.046,3.22636,3.22636,0,0,0,1.142,1.27,2.63721,2.63721,0,0,0,1.352.383q1.329,0,2.472-1.855a24.27472,24.27472,0,0,0,2.261-5.967,20.18234,20.18234,0,0,0,1.935,6.189,3.18423,3.18423,0,0,0,2.682,1.875,2.32159,2.32159,0,0,0,1.596-.705,8.73923,8.73923,0,0,0,1.435-1.794c.17-.274.328-.573.487-.874.094.322.189.643.303.928a4.82309,4.82309,0,0,0,1.069,1.703,1.97977,1.97977,0,0,0,1.405.605q.984,0,1.969-1.501a14.63133,14.63133,0,0,0,1.698-4.057,14.07116,14.07116,0,0,0,1.206,4.169q.825,1.65752,2.043,1.658a2.19961,2.19961,0,0,0,1.633-.874,3.88,3.88,0,0,0,.983-1.357c.117-.237,1.208-2.577,1.32-2.825l2.342-8.057c.74-2.039,1.432-2.923,1.909-4.556a69.65718,69.65718,0,0,1,2.529-7.484c.92-2.192,1.998-2.327,3.574-.516,1.733,1.993,2.984,4.343,4.611,6.416,3.715,4.733,6.431,6.986,11.777,6.828v.005c1.685.087,3.398-.027,5.151-.034,4.79-.019,9.561-.406,14.35-.263a7.56753,7.56753,0,0,0,1.01-.037c5.799-.598,11.594-.536,17.39-.807,4.021-.188,7.468-.324,11.487-.39.275-.004.986-.056,1.265-.059a81.61529,81.61529,0,0,0,8.823-.235c.201-.022.886.003,1.088,0,2.417-.033,4.255-.315,6.517-.548.021-.005.247-.043.267-.048a9.048,9.048,0,0,0,1.07-.061Z" transform="translate(-11.5989 -8.18955)"/><path class="cls-2" d="M139.0052,87.1122q.01949-1.2015.046-2.261.0285-1.0605.045-2.156.0195-1.095.049-2.51.00449-.6705.025-2.014.018-1.3425.062-3.093.04352-1.7475.118-3.745.075-1.9965.19-3.992.114-1.998.279-3.833.16349-1.8375.395-3.249a12.9443,12.9443,0,0,1,.541-2.259q.309-.846.711-.843.384.003.672.553a5.54306,5.54306,0,0,1,.472,1.523,18.59159,18.59159,0,0,1,.267,2.352q.07949,1.38.068,3.075-.024,3.3945-.33,6.75-.306,3.354-.834,6.568-.525,3.213-1.244,6.23-.714,3.015-1.562,5.732c.008-1.085.018-2.026.03-2.828" transform="translate(-11.5989 -8.18955)"/><path class="cls-2" d="M186.4754,87.1122c.014-.801.028-1.555.047-2.261q.027-1.0605.045-2.156.018-1.095.049-2.51.00452-.6705.024-2.014.0195-1.3425.063-3.093.042-1.7475.117-3.745.075-1.9965.19-3.992.114-1.998.279-3.833.165-1.8375.396-3.249a12.85662,12.85662,0,0,1,.541-2.259q.30751-.846.71-.843c.257.002.48.187.672.553a5.50855,5.50855,0,0,1,.472,1.523,18.59159,18.59159,0,0,1,.267,2.352q.081,1.38.068,3.075-.0225,3.3945-.33,6.75-.306,3.354-.834,6.568-.525,3.213-1.244,6.23-.714,3.015-1.562,5.732c.008-1.085.018-2.026.03-2.828" transform="translate(-11.5989 -8.18955)"/><path class="cls-2" d="M140.718,115.8026a43.45767,43.45767,0,0,1,1.16,4.472,45.43893,45.43893,0,0,1,.706,4.682q.231,2.3685.232,4.525c0,.565-.028,1.3-.081,2.209a26.65831,26.65831,0,0,1-.292,2.669,10.67418,10.67418,0,0,1-.596,2.26c-.254.637-.584.954-.986.954q-.66748,0-1.019-1.572a28.08264,28.08264,0,0,1-.524-4.136q-.171-2.562-.192-5.778-.0195-3.216-.02-6.503,0-1.59.01-3.517.009-1.926.01-4.154a24.19484,24.19484,0,0,1,1.592,3.889" transform="translate(-11.5989 -8.18955)"/><path class="cls-3" d="M146.678,87.7636c.028-.222.069-.498.123-.831.055-.332.116-.645.184-.935.069-.29.133-.54.194-.748.062-.207.113-.311.154-.311s.078.111.113.332c.035.222.061.485.082.789.02.304.033.617.041.936.007.317.01.574.01.768Z" transform="translate(-11.5989 -8.18955)"/><path class="cls-2" d="M160.84109,99.3485c-.071-.549-.129-1.129-.178-1.74-.05-.611-.073-1.191-.073-1.741q0-1.329.115-2.68a17.69471,17.69471,0,0,1,.367-2.452,6.54479,6.54479,0,0,1,.649-1.786,1.14,1.14,0,0,1,.966-.687q.42,0,.735.71a5.3511,5.3511,0,0,1,.315,2.084,14.24012,14.24012,0,0,1-.211,2.451,15.035,15.035,0,0,1-.587,2.314,11.13225,11.13225,0,0,1-.913,2.015,6.36814,6.36814,0,0,1-1.185,1.512" transform="translate(-11.5989 -8.18955)"/><path class="cls-2" d="M170.6443,99.3485q-.105-.8235-.177-1.74-.075-.9165-.074-1.741,0-1.329.115-2.68a17.84529,17.84529,0,0,1,.367-2.452,6.51013,6.51013,0,0,1,.65-1.786,1.13885,1.13885,0,0,1,.966-.687q.4185,0,.734.71a5.3511,5.3511,0,0,1,.315,2.084,14.33862,14.33862,0,0,1-.21,2.451,15.03611,15.03611,0,0,1-.587,2.314,11.202,11.202,0,0,1-.913,2.015,6.39609,6.39609,0,0,1-1.186,1.512" transform="translate(-11.5989 -8.18955)"/></svg>