<svg xmlns="http://www.w3.org/2000/svg" viewBox="0 0 78 78.17"><defs><style>.cls-1{fill:#989a9b;}.cls-2{fill:none;}</style></defs><title>Recurso 16</title><g id="Capa_2" data-name="Capa 2"><g id="Capa_1-2" data-name="Capa 1"><path class="cls-1" d="M20.9,13.77a1.76,1.76,0,0,0-1.5.8l-14,19h0a.76.76,0,0,0-.2.5v.1a.9.9,0,0,0-.1.5v28A2,2,0,0,0,7,64.57H42a.9.9,0,0,0,.5-.1c.2,0,.3.1.5.1H71a2,2,0,0,0,1.9-1.9v-28a1.5,1.5,0,0,0-.4-1.1l-14-19-.1-.1c-.1-.1-.2-.2-.2-.3h0a1.59,1.59,0,0,0-1.2-.4Zm-12.1,47V36.57H41v24.2m1.9-33h-2a1.9,1.9,0,0,0,0,3.8h1.9l-.9,1.2H10.7l4.6-6.2H16a2,2,0,0,0,1.9-1.9,1.5,1.5,0,0,0-.4-1.1l1.5-2h1a2,2,0,0,0,1.9-1.9,1.9,1.9,0,0,0-.5-1.3l.6-.8H53.2l-.3.4a1.49,1.49,0,0,0-.9-.2H50a1.9,1.9,0,0,0,0,3.8h.3l-1.2,1.6a2.1,2.1,0,0,0-1.1-.4H46a1.9,1.9,0,0,0,0,3.8h.6l-1.8,2.5A2.35,2.35,0,0,0,42.9,27.77Zm26.1,33H44.8V35.27l12.1-16.4L69,35.27v25.5ZM52.7,35.27h-2a2,2,0,0,0-1.9,1.9v8a2,2,0,0,0,1.9,1.9h2a2,2,0,0,0,1.9-1.9v-8A1.84,1.84,0,0,0,52.7,35.27Zm9.2,11.9h2a2,2,0,0,0,1.9-1.9v-8a2,2,0,0,0-1.9-1.9h-2a2,2,0,0,0-1.9,1.9v8A1.9,1.9,0,0,0,61.9,47.17Zm-29,6.4h2a2,2,0,0,0,1.9-1.9v-8a2,2,0,0,0-1.9-1.9h-2a2,2,0,0,0-1.9,1.9v8A1.84,1.84,0,0,0,32.9,53.57Zm-9.1,0h2a2,2,0,0,0,1.9-1.9v-8a2,2,0,0,0-1.9-1.9h-2a2,2,0,0,0-1.9,1.9v8A1.84,1.84,0,0,0,23.8,53.57Zm32.6,9.3h2.4a2.26,2.26,0,0,0,2.3-2.3v-9.7a2.26,2.26,0,0,0-2.3-2.3H56.4a2.26,2.26,0,0,0-2.3,2.3v9.7A2.26,2.26,0,0,0,56.4,62.87Zm-41.5-9.3h2a2,2,0,0,0,1.9-1.9v-8a2,2,0,0,0-1.9-1.9h-2a2,2,0,0,0-1.9,1.9v8A1.84,1.84,0,0,0,14.9,53.57Zm30.9-33.9a2,2,0,0,0-1.9-1.9h-2a1.9,1.9,0,0,0,0,3.8h2A1.9,1.9,0,0,0,45.8,19.67Zm-11.9,1.9h2a1.9,1.9,0,0,0,0-3.8h-2a2,2,0,0,0-1.9,1.9A1.9,1.9,0,0,0,33.9,21.57Zm-8,0h2a1.9,1.9,0,1,0,0-3.8h-2a2,2,0,0,0-1.9,1.9A1.9,1.9,0,0,0,25.9,21.57Zm-.1,3.1a2,2,0,0,0-1.9-1.9h-2a1.9,1.9,0,0,0,0,3.8h2A1.9,1.9,0,0,0,25.8,24.67Zm14.1-1.9h-2a1.9,1.9,0,0,0,0,3.8h2a1.9,1.9,0,0,0,0-3.8Zm-6.1,1.9a2,2,0,0,0-1.9-1.9h-2a1.9,1.9,0,0,0,0,3.8h2A1.9,1.9,0,0,0,33.8,24.67Zm-14.9,3.1h-2a1.9,1.9,0,0,0,0,3.8h2a1.9,1.9,0,1,0,0-3.8Zm16,0h-2a1.9,1.9,0,0,0,0,3.8h2a1.9,1.9,0,0,0,0-3.8Zm-8,0h-2a1.9,1.9,0,0,0,0,3.8h2a1.9,1.9,0,1,0,0-3.8Z"/><rect class="cls-2" width="78" height="78.17"/></g></g></svg>