<svg id="Layer_1" data-name="Layer 1" xmlns="http://www.w3.org/2000/svg" viewBox="0 0 42.38883 31.375"><defs><style>.cls-1{fill:none;stroke:#c38888;stroke-linecap:round;stroke-linejoin:round;}.cls-2{fill:#c38888;}</style></defs><title>Media</title><line class="cls-1" x1="31.95135" y1="0.6875" x2="41.84251" y2="13.32874"/><line class="cls-1" x1="41.84325" y1="13.32874" x2="41.88005" y2="30.46185"/><line class="cls-1" x1="0.5" y1="13.32874" x2="0.55035" y2="30.84418"/><line class="cls-1" x1="23.46758" y1="13.32874" x2="23.46079" y2="30.29706"/><line class="cls-1" x1="41.88883" y1="30.875" x2="0.55035" y2="30.84424"/><polygon class="cls-1" points="31.951 0.687 9.264 0.5 0.545 12.687 23.608 12.687 31.951 0.687"/><ellipse class="cls-2" cx="13.20139" cy="3.64062" rx="1.78125" ry="1.35937"/><ellipse class="cls-2" cx="10.87327" cy="6.78124" rx="1.78125" ry="1.35937"/><ellipse class="cls-2" cx="20.9045" cy="6.78124" rx="1.78125" ry="1.35937"/><ellipse class="cls-2" cx="17.90452" cy="9.96873" rx="1.78125" ry="1.35937"/><ellipse class="cls-2" cx="12.93578" cy="9.96873" rx="1.78125" ry="1.35937"/><ellipse class="cls-2" cx="7.87329" cy="9.96873" rx="1.78125" ry="1.35937"/><ellipse class="cls-2" cx="15.93576" cy="6.78124" rx="1.78125" ry="1.35937"/><ellipse class="cls-2" cx="18.73263" cy="3.64062" rx="1.78125" ry="1.35937"/><ellipse class="cls-2" cx="23.51387" cy="3.64062" rx="1.78125" ry="1.35937"/><rect class="cls-2" x="6.17016" y="17.56247" width="4.40624" height="7.87498" rx="0.95224"/><rect class="cls-2" x="14.25608" y="17.56247" width="4.40624" height="7.87498" rx="0.95224"/><rect class="cls-2" x="30.75604" y="23.56247" width="4.40624" height="7.23594" rx="0.95224"/></svg>