<svg id="Layer_1" data-name="Layer 1" xmlns="http://www.w3.org/2000/svg" viewBox="0 0 42.80735 31.37713"><defs><style>.cls-1{fill:none;stroke:#fff;stroke-miterlimit:10;}.cls-2{fill:#fff;}</style></defs><title>Media blanca</title><line class="cls-1" x1="32.37865" y1="0.68963" x2="42.26981" y2="13.33087"/><line class="cls-1" x1="42.27055" y1="13.33087" x2="42.30735" y2="30.46398"/><line class="cls-1" x1="23.89487" y1="13.33087" x2="23.88809" y2="30.29919"/><line class="cls-1" x1="1.20742" y1="13.33087" x2="1.20064" y2="30.29919"/><line class="cls-1" x1="42.31613" y1="30.87713" x2="0.97764" y2="30.84637"/><polygon class="cls-1" points="32.379 0.69 9.691 0.502 0.972 12.69 24.035 12.69 32.379 0.69"/><ellipse class="cls-2" cx="13.62869" cy="3.64275" rx="1.78125" ry="1.35937"/><ellipse class="cls-2" cx="11.30057" cy="6.78337" rx="1.78125" ry="1.35937"/><ellipse class="cls-2" cx="21.3318" cy="6.78337" rx="1.78125" ry="1.35937"/><ellipse class="cls-2" cx="18.33181" cy="9.97086" rx="1.78125" ry="1.35937"/><ellipse class="cls-2" cx="13.36307" cy="9.97086" rx="1.78125" ry="1.35937"/><ellipse class="cls-2" cx="8.30058" cy="9.97086" rx="1.78125" ry="1.35937"/><ellipse class="cls-2" cx="16.36306" cy="6.78337" rx="1.78125" ry="1.35937"/><ellipse class="cls-2" cx="19.15993" cy="3.64275" rx="1.78125" ry="1.35937"/><ellipse class="cls-2" cx="23.94117" cy="3.64275" rx="1.78125" ry="1.35937"/><rect class="cls-2" x="6.59745" y="17.56459" width="4.40624" height="7.87498" rx="0.95224"/><rect class="cls-2" x="14.68337" y="17.56459" width="4.40624" height="7.87498" rx="0.95224"/><rect class="cls-2" x="31.18334" y="23.56459" width="4.40624" height="7.23594" rx="0.95224"/></svg>