<svg id="Layer_1" data-name="Layer 1" xmlns="http://www.w3.org/2000/svg" viewBox="0 0 187.18754 162.17048"><defs><style>.cls-1{fill:#fff;}.cls-2{fill:#d0cecf;}.cls-3{fill:#fcfcfe;}.cls-4{fill:#fbfbfd;}</style></defs><title>microfono</title><path class="cls-1" d="M4.65666,98.93778c0-29.77208.06518-59.5445-.09273-89.31574-.01732-3.26542.91827-3.75869,3.8937-3.7528q73.09929.14489,146.199.06854c.49991,2.65262-1.76794,3.70335-3.10371,5.25108-9.457,10.95757-19.43006,21.45224-29.01886,32.29194-.99151,1.12086-1.85707,2.35291-2.76665,3.54326-1.11591,1.46035-2.62858,3.31782-.76726,4.766,1.33807,1.0411,2.59289-.97788,3.50237-1.97174,10.32945-11.28777,20.86012-22.39648,30.767-34.06364,2.38475-2.80848,4.19818-5.97644,4.38713-9.81692,10.15109,0,20.30446.118,30.45184-.07585,2.84091-.05426,3.65073.39283,3.64267,3.51868q-.19935,77.38082-.02446,154.76228c.00566,2.9964-.518,3.89777-3.76416,3.88529-36.94279-.14232-73.88634-.0904-110.82969-.0904H61.65666c.112-2.80562,2.65474-3.09154,4.3955-4.08371,8.34209-4.75462,9.30277-8.99962,3.84254-16.86305-3.13855-4.51987-6.54137-8.84061-9.739-13.31331-1.05272-1.47246-2.41518-3.00721-1.44106-4.97748.96055-1.94287,2.98038-1.9902,4.80652-1.97611,9.15225.07061,18.2651.95063,27.39244,1.50668,2.48837.1516,5.01059.7322,7.4605.35006a20.24493,20.24493,0,0,1,12.49334,1.99936c4.6425,2.25561,14.10538-1.78982,16.50983-6.42558,1.37047-2.64224.75643-5.14216-.38225-7.67068-1.9207-4.265-4.37188-8.2408-6.63342-12.31823-1.87352-3.37783-2.14919-6.33571.63382-9.58434,3.335-3.89295,3.53834-8.29,1.15694-13.03007-4.11329-8.18725-8.77641-16.07662-12.75526-24.34315-2.6348-5.47412-7.12249-8.82274-13.74252-7.70853-3.40278.57272-4.79555-1.75331-6.05844-4.14214-2.17934-4.12235-4.011-8.42865-6.38523-12.44778-3.09246-5.23486-6.29685-6.68751-11.57453-5.416-5.44718,1.31231-9.6992,5.50953-10.02,10.3972a12.83164,12.83164,0,0,1-2.65512,6.86219C51.741,54.74977,44.95913,65.0429,38.24,75.37731a16.92168,16.92168,0,0,1-8.42718,6.78376c-6.31368,2.34834-11.67622,6.39828-17.59572,9.43845a12.79579,12.79579,0,0,0-4.49823,4.58057C6.9439,97.31222,6.70406,99.17334,4.65666,98.93778Z" transform="translate(-4.5637 -5.85782)"/><path class="cls-2" d="M4.65666,98.93778C8.84009,89.26112,18.48083,86.518,26.66912,82.27756c5.04417-2.6122,9.28374-5.3694,12.38579-10.22779,5.63317-8.82263,11.71383-17.35835,17.51354-26.07647,1.94-2.91627,4.26342-5.44081,3.69869-9.74436-.49243-3.75263,6.1576-9.19547,11.06815-10.28329,5.88095-1.30279,9.72465.33207,12.55723,5.45029,1.2003,2.16882,2.15125,4.47747,3.38236,6.627,2.87988,5.0284,3.66757,11.82479,12.79266,10.23947,5.26737-.91512,8.97848,4.33239,10.91809,8.92984,3.4462,8.16846,8.13306,15.64226,12.164,23.47035,3.12034,6.05968,2.47543,11.22363-2.03969,15.87616-1.86016,1.91676-1.54972,3.39079-.52778,5.28031,2.61228,4.83,5.32673,9.60977,7.77807,14.52057,2.73284,5.47475,1.085,10.05025-4.3249,12.94407-5.7575,3.07974-11.49272,5.62659-17.55892.6284a3.42226,3.42226,0,0,0-2.3252-.741c-13.1373,1.67109-26.12439-1.23468-39.20039-1.20171-1.90286.0048-4.46237-.99392-5.49629,1.13833-.89276,1.84115,1.31119,3.14482,2.34934,4.57887,3.3137,4.57741,6.57,9.19757,9.94913,13.72612,4.88243,6.54323,3.7612,12.42022-3.26562,16.5487-2.27153,1.3346-4.55353,2.65139-6.83075,3.97632h-2c-5.19784-.42723-8.69286-3.43472-11.52482-7.517-2.26836-3.26982-4.85837-6.31181-7.08228-9.60868-3.29936-4.89118-6.70786-9.16486-13.44626-9.57978-3.72756-.22953-6.534-3.01863-8.36036-6.43457-4.53175-8.47612-8.73021-17.11982-13.02622-25.7152-.99547-1.99172-.62762-4.20814-1.56006-6.1448Z" transform="translate(-4.5637 -5.85782)"/><path class="cls-1" d="M4.65666,102.93778q7.72212,15.49736,15.45309,30.99027c2.42457,4.83191,6.72694,6.78975,11.814,6.9086a5.78841,5.78841,0,0,1,5.25917,2.83793c3.61321,5.15442,7.74155,9.94948,11.31982,15.12607,2.89035,4.18141,6.32859,7.44035,11.15388,9.13713-17.33333,0-34.6671-.05977-51.99951.06662-2.50231.01825-3.08062-.56544-3.06649-3.067C4.70734,144.2714,4.65666,123.60445,4.65666,102.93778Z" transform="translate(-4.5637 -5.85782)"/><path class="cls-2" d="M157.65666,5.93778c2.98981,5.24386-1.5658,8.31337-4.026,11.20326-9.67889,11.36941-19.88481,22.292-29.97124,33.31075-1.59953,1.74737-3.579,4.52558-6.15837,2.0644-2.334-2.227-.31776-4.48041,1.41527-6.42212q17.898-20.05328,35.74033-40.15629Z" transform="translate(-4.5637 -5.85782)"/><path class="cls-2" d="M134.33659,79.79823c-1.9458-.1421-4.06943-1.11765-4.24982-3.5839-.20864-2.85248,2.04725-3.99074,4.58062-4.19091,5.10989-.40371,10.21553-.24238,15.36216-.89554,11.79244-1.49652,23.69014-2.14661,35.527-3.32263,2.76593-.2748,4.77722.18252,5.01394,3.15828.22255,2.79742-2.032,2.70147-4.095,3.0832C169.37462,77.211,151.94974,77.40391,134.33659,79.79823Z" transform="translate(-4.5637 -5.85782)"/><path class="cls-2" d="M174.32962,35.93624c2.07069-.15625,3.402.12707,3.93132,1.60338.71713,2-.65282,3.18517-2.11371,4.0145-4.32973,2.45793-8.68338,4.884-13.11943,7.14232-10.51306,5.352-21.07288,10.61246-31.63232,15.87278a14.15967,14.15967,0,0,1-3.7039,1.33433c-1.53.27729-3.07859-.011-3.73394-1.71331-.57131-1.484.279-2.65307,1.375-3.44449a46.11124,46.11124,0,0,1,6.2532-4.04257c13.33474-6.653,26.71854-13.20785,40.09832-19.77029A23.18448,23.18448,0,0,1,174.32962,35.93624Z" transform="translate(-4.5637 -5.85782)"/><path class="cls-3" d="M102.03435,122.71775c-10.36575.89125-20.42338-1.81109-30.447-.68955-7.34051.82133-11.06266-2.10258-13.92873-8.67256-4.17638-9.57368-9.3129-18.73954-14.27428-27.95315-1.51857-2.8201-1.58835-4.88461.29221-7.62888C49.77347,68.87649,55.58,59.7795,61.44378,50.7241c1.65422-2.55462,2.85761-3.4719,4.626.0407q17.59807,34.95618,35.372,69.82387A12.46942,12.46942,0,0,1,102.03435,122.71775Z" transform="translate(-4.5637 -5.85782)"/><path class="cls-3" d="M35.2268,86.24017c1.76975-.15975,2.14856,1.279,2.72878,2.42849,5.25087,10.40251,10.4234,20.84524,15.76662,31.2,1.34137,2.59945.64488,3.8658-1.806,5.02152-5.7204,2.69742-11.38725,5.51323-17.01927,8.39169-4.22007,2.15683-7.10511,1.35066-9.23128-3.10228-4.15994-8.71229-8.55081-17.31569-12.93625-25.91821-1.521-2.98367-1.49548-5.49558,1.68411-7.19876,6.45127-3.4557,12.96009-6.804,19.44776-10.19164C34.30339,86.64,34.76689,86.45,35.2268,86.24017Z" transform="translate(-4.5637 -5.85782)"/><path class="cls-3" d="M120.684,118.95366c.13639,3.19913-1.4016,5.25877-4.27892,6.04594-3.1514.86218-5.42377-.55951-6.89958-3.40815-3.75089-7.24007-7.57246-14.44382-11.28334-21.70422Q83.78986,71.65012,69.43772,43.37207c-2.27564-4.48061-1.47333-7.7299,2.422-9.51317,4.2806-1.95966,6.51821.71606,8.22166,4.053q16.34951,32.02688,32.64829,64.07963c2.11726,4.14788,4.38718,8.21766,6.5673,12.33373A8.238,8.238,0,0,1,120.684,118.95366Z" transform="translate(-4.5637 -5.85782)"/><path class="cls-3" d="M65.75378,154.444c.1341,2.6212-.8342,4.50865-3.41291,5.42483-2.6202.93094-5.04119.51427-6.72624-1.65739-3.74921-4.83183-7.33406-9.79308-10.9162-14.75192-1.99793-2.76578-1.17568-5.45191.89773-7.66672a4.66234,4.66234,0,0,1,7.09855-.19084c5.08783,4.78555,8.73628,10.75085,12.73733,16.41079C65.84977,152.60369,65.6611,153.6233,65.75378,154.444Z" transform="translate(-4.5637 -5.85782)"/><path class="cls-4" d="M117.69482,87.57577c-.123,1.40947.32734,3.28749-1.61884,3.65838-1.4907.28408-2.26566-1.0774-2.88059-2.308Q105.418,73.36137,97.64134,57.79632c-.4136-.83034-1.24178-1.75878-.18181-2.65485a2.70559,2.70559,0,0,1,3.23969-.19925A7.06336,7.06336,0,0,1,103.72,58.12505q6.51036,12.57506,13.05269,25.13353A7.39891,7.39891,0,0,1,117.69482,87.57577Z" transform="translate(-4.5637 -5.85782)"/></svg>