<svg xmlns="http://www.w3.org/2000/svg" viewBox="0 0 99.29 80.36"><defs><style>.cls-1{fill:#912F46;}</style></defs><title>Todo_listo</title><g id="Capa_2" data-name="Capa 2"><g id="Capa_1-2" data-name="Capa 1"><g id="Grupo_2384" data-name="Grupo 2384"><g id="Grupo_2388" data-name="Grupo 2388"><g id="Grupo_2384-2" data-name="Grupo 2384-2"><path id="Trazado_2446" data-name="Trazado 2446" class="cls-1" d="M77.09,76.08l-10.93,4.2a1.28,1.28,0,0,1-1.64-.73h0a1.26,1.26,0,0,1,.73-1.63h0l10.94-4.2a1.26,1.26,0,0,1,1.63.73h0a1.26,1.26,0,0,1-.72,1.63Z"/></g><g id="Grupo_2385" data-name="Grupo 2385"><path id="Trazado_2447" data-name="Trazado 2447" class="cls-1" d="M71.61,78.14A1.26,1.26,0,0,1,70,77.41h0L63.52,60.6A1.27,1.27,0,0,1,64.25,59h0a1.26,1.26,0,0,1,1.63.73h0l6.46,16.82a1.26,1.26,0,0,1-.73,1.63Z"/></g><g id="Grupo_2386" data-name="Grupo 2386"><path id="Trazado_2448" data-name="Trazado 2448" class="cls-1" d="M65.09,61.13a8.87,8.87,0,0,1-11.15-4.38,1.17,1.17,0,0,1-.2-.34L46.68,38a1.25,1.25,0,0,1,.72-1.63h0L61.65,30.9a1.26,1.26,0,0,1,1.63.73h0l6.92,18c.06.15.11.29.16.44A8.89,8.89,0,0,1,65.09,61.13ZM56,55.22a2.12,2.12,0,0,1,.11.21A6.36,6.36,0,0,0,68,50.89l-.12-.33L61.37,33.71,49.49,38.28Z"/></g><g id="Grupo_2387" data-name="Grupo 2387"><path id="Trazado_2449" data-name="Trazado 2449" class="cls-1" d="M66.82,44.4a1.22,1.22,0,0,1-.5.08L50,43.88a1.27,1.27,0,1,1,.1-2.53l16.31.6a1.27,1.27,0,0,1,.41,2.45Z"/></g></g><g id="Grupo_2393" data-name="Grupo 2393"><g id="Grupo_2389" data-name="Grupo 2389"><path id="Trazado_2450" data-name="Trazado 2450" class="cls-1" d="M31.48,70.26a1.24,1.24,0,0,1-1,0L19.87,65.3A1.26,1.26,0,1,1,20.94,63l10.62,4.93a1.25,1.25,0,0,1-.08,2.32Z"/></g><g id="Grupo_2390" data-name="Grupo 2390"><path id="Trazado_2451" data-name="Trazado 2451" class="cls-1" d="M26.19,67.76a1.26,1.26,0,0,1-1.6-1.71l7.58-16.34a1.27,1.27,0,0,1,1.68-.62h0a1.26,1.26,0,0,1,.61,1.68L26.88,67.11A1.22,1.22,0,0,1,26.19,67.76Z"/></g><g id="Grupo_2391" data-name="Grupo 2391"><path id="Trazado_2452" data-name="Trazado 2452" class="cls-1" d="M39.78,51.43A8.88,8.88,0,0,1,28.35,39.84c.06-.15.12-.29.19-.44l8.12-17.51a1.28,1.28,0,0,1,1.68-.62h0l13.85,6.42a1.28,1.28,0,0,1,.65.72,1.23,1.23,0,0,1,0,1L44.5,47.26a1.19,1.19,0,0,1-.22.33A8.78,8.78,0,0,1,39.78,51.43ZM38.42,24.1,30.83,40.47c0,.1-.09.21-.14.32A6.35,6.35,0,0,0,42.2,46.12a.9.9,0,0,1,.14-.2L50,29.46Z"/></g><g id="Grupo_2392" data-name="Grupo 2392"><path id="Trazado_2453" data-name="Trazado 2453" class="cls-1" d="M49.57,34.93a1.33,1.33,0,0,1-.49.09L32.76,34.5A1.26,1.26,0,1,1,32.84,32h0l16.32.51a1.25,1.25,0,0,1,1.22,1.3h0A1.24,1.24,0,0,1,49.57,34.93Z"/></g></g><g id="Grupo_2394" data-name="Grupo 2394"><path id="Trazado_2454" data-name="Trazado 2454" class="cls-1" d="M23.46,27.42a1.26,1.26,0,0,1-1,0l-9.7-4.56a1.27,1.27,0,0,1-.6-1.69h0a1.26,1.26,0,0,1,1.68-.6l9.69,4.56a1.28,1.28,0,0,1,.61,1.69A1.31,1.31,0,0,1,23.46,27.42Z"/></g><g id="Grupo_2395" data-name="Grupo 2395"><path id="Trazado_2455" data-name="Trazado 2455" class="cls-1" d="M29.72,23.64a1.28,1.28,0,0,1-1.6-.65l-2.6-5.56a1.26,1.26,0,1,1,2.29-1.07l2.6,5.56a1.26,1.26,0,0,1-.61,1.68Z"/></g><g id="Grupo_2396" data-name="Grupo 2396"><path id="Trazado_2456" data-name="Trazado 2456" class="cls-1" d="M22.7,34.73a1.25,1.25,0,0,1-.42.08L15.79,35a1.27,1.27,0,0,1-1.3-1.23h0a1.27,1.27,0,0,1,1.23-1.3l6.49-.19a1.27,1.27,0,0,1,.49,2.45Z"/></g><g id="Grupo_2397" data-name="Grupo 2397"><path id="Trazado_2457" data-name="Trazado 2457" class="cls-1" d="M91,52a1.57,1.57,0,0,1-.43.09l-10.71.27a1.27,1.27,0,1,1-.06-2.53l10.71-.27A1.26,1.26,0,0,1,91,52Z"/></g><g id="Grupo_2398" data-name="Grupo 2398"><path id="Trazado_2458" data-name="Trazado 2458" class="cls-1" d="M81.24,62.27A1.26,1.26,0,0,1,80,62.08l-4.82-3.81A1.27,1.27,0,0,1,75,56.5h0a1.26,1.26,0,0,1,1.77-.21h0l4.82,3.81a1.25,1.25,0,0,1,.2,1.77A1.23,1.23,0,0,1,81.24,62.27Z"/></g><g id="Grupo_2399" data-name="Grupo 2399"><path id="Trazado_2459" data-name="Trazado 2459" class="cls-1" d="M77.71,45.4a1.27,1.27,0,0,1-1-2.3L82.37,40a1.27,1.27,0,0,1,1.71.51h0a1.27,1.27,0,0,1-.51,1.71l-5.72,3.08Z"/></g><g id="Grupo_2469" data-name="Grupo 2469"><g id="Grupo_2400" data-name="Grupo 2400"><path id="Trazado_2460" data-name="Trazado 2460" class="cls-1" d="M3.51,44.78.39,42.16a1.08,1.08,0,0,1-.14-1.52,1.09,1.09,0,0,1,1.53-.14L4.9,43.12a1.08,1.08,0,1,1-1.39,1.66Z"/></g><g id="Grupo_2401" data-name="Grupo 2401"><path id="Trazado_2461" data-name="Trazado 2461" class="cls-1" d="M.64,45a1.07,1.07,0,0,1-.13-1.52l2.61-3.12a1.08,1.08,0,1,1,1.66,1.39L2.17,44.9A1.08,1.08,0,0,1,.64,45Z"/></g></g><g id="Grupo_2470" data-name="Grupo 2470"><g id="Grupo_2400-2" data-name="Grupo 2400-2"><path id="Trazado_2460-2" data-name="Trazado 2460-2" class="cls-1" d="M46.35,4.78,43.23,2.17A1.09,1.09,0,0,1,44.63.5l3.12,2.62a1.09,1.09,0,0,1-1.4,1.66Z"/></g><g id="Grupo_2401-2" data-name="Grupo 2401-2"><path id="Trazado_2461-2" data-name="Trazado 2461-2" class="cls-1" d="M43.48,5a1.09,1.09,0,0,1-.13-1.52L46,.39a1.08,1.08,0,1,1,1.66,1.39L45,4.9A1.08,1.08,0,0,1,43.48,5Z"/></g></g><g id="Grupo_2471" data-name="Grupo 2471"><g id="Grupo_2400-3" data-name="Grupo 2400-3"><path id="Trazado_2460-3" data-name="Trazado 2460-3" class="cls-1" d="M80.51,19.78l-3.12-2.62a1.08,1.08,0,0,1-.14-1.52,1.09,1.09,0,0,1,1.53-.14l3.12,2.62a1.08,1.08,0,1,1-1.39,1.66Z"/></g><g id="Grupo_2401-3" data-name="Grupo 2401-3"><path id="Trazado_2461-3" data-name="Trazado 2461-3" class="cls-1" d="M77.64,20a1.07,1.07,0,0,1-.13-1.52l2.61-3.12a1.08,1.08,0,1,1,1.66,1.39L79.17,19.9A1.08,1.08,0,0,1,77.64,20Z"/></g></g><g id="Grupo_2472" data-name="Grupo 2472"><g id="Grupo_2400-4" data-name="Grupo 2400-4"><path id="Trazado_2460-4" data-name="Trazado 2460-4" class="cls-1" d="M97.51,72.78l-3.12-2.62a1.08,1.08,0,0,1-.14-1.52,1.09,1.09,0,0,1,1.53-.14l3.12,2.62a1.08,1.08,0,1,1-1.39,1.66Z"/></g><g id="Grupo_2401-4" data-name="Grupo 2401-4"><path id="Trazado_2461-4" data-name="Trazado 2461-4" class="cls-1" d="M94.64,73a1.07,1.07,0,0,1-.13-1.52l2.61-3.12a1.08,1.08,0,1,1,1.66,1.39L96.17,72.9A1.08,1.08,0,0,1,94.64,73Z"/></g></g></g></g></g></svg>